<?xml version="1.0" encoding="UTF-8" standalone="no"?>
<!-- Created with Inkscape (http://www.inkscape.org/) -->

<svg
   width="210mm"
   height="297mm"
   viewBox="0 0 210 297"
   version="1.1"
   id="svg1"
   xml:space="preserve"
   xmlns:xlink="http://www.w3.org/1999/xlink"
   xmlns="http://www.w3.org/2000/svg"
   xmlns:svg="http://www.w3.org/2000/svg"><defs
     id="defs1"><linearGradient
       id="linearGradient547"><stop
         style="stop-color:#ff0012;stop-opacity:1;"
         offset="0"
         id="stop547" /><stop
         style="stop-color:#ffed00;stop-opacity:1;"
         offset="1"
         id="stop546" /></linearGradient><linearGradient
       xlink:href="#linearGradient547"
       id="linearGradient530"
       x1="30.132523"
       y1="138.36992"
       x2="194.25177"
       y2="138.36992"
       gradientUnits="userSpaceOnUse" /><linearGradient
       xlink:href="#linearGradient547"
       id="linearGradient537"
       x1="42.589664"
       y1="142.02864"
       x2="138.02397"
       y2="142.02864"
       gradientUnits="userSpaceOnUse" /><linearGradient
       xlink:href="#linearGradient547"
       id="linearGradient2"
       gradientUnits="userSpaceOnUse"
       x1="42.589664"
       y1="142.02864"
       x2="138.02397"
       y2="142.02864" /><linearGradient
       xlink:href="#linearGradient547"
       id="linearGradient3"
       gradientUnits="userSpaceOnUse"
       x1="42.589664"
       y1="142.02864"
       x2="138.02397"
       y2="142.02864" /><linearGradient
       xlink:href="#linearGradient547"
       id="linearGradient4"
       gradientUnits="userSpaceOnUse"
       x1="42.589664"
       y1="142.02864"
       x2="138.02397"
       y2="142.02864" /><linearGradient
       xlink:href="#linearGradient547"
       id="linearGradient5"
       gradientUnits="userSpaceOnUse"
       x1="42.589664"
       y1="142.02864"
       x2="138.02397"
       y2="142.02864" /></defs><g
     id="layer5"
     style="display:inline"><path
       style="fill:url(#linearGradient530);stroke:#000000;stroke-width:2;stroke-dasharray:none;stroke-opacity:1"
       d="M 87.603916,236.98507 C 62.940788,235.34351 42.324847,215.86306 34.226656,193.25401 24.887605,167.93287 33.177058,140.19043 45.227991,117.31037 56.30444,95.10262 72.556647,75.570944 92.72699,61.04618 c 18.10741,-13.170593 40.33338,-24.34614 63.3555,-20.638435 21.65708,3.347588 40.64954,23.939134 37.87984,46.484489 -1.71937,13.678736 -12.14815,28.086846 -26.97027,28.543376 -13.01858,1.50404 -27.16191,-9.06239 -25.77489,-22.920587 -0.0707,-10.329052 12.7099,-19.903496 21.83193,-12.896964 8.53941,3.405102 0.65793,19.478625 -4.4922,10.48265 10.03651,-3.928723 -10.40526,-5.960779 -5.2716,3.331295 5.94882,7.605436 18.72383,4.954113 21.38662,-4.194505 3.70233,-9.306695 -2.82558,-20.064995 -12.60989,-21.466297 -13.82778,-3.652897 -26.77669,8.462045 -29.55754,21.345617 -4.25381,17.968241 6.09287,34.591811 12.3274,50.731141 9.62647,22.15753 11.06496,49.9139 -3.29344,70.37728 -11.1607,18.36854 -32.77047,28.25861 -53.934534,26.75983 z"
       id="path352" /></g><g
     id="layer6"
     style="display:inline"><path
       style="fill:#00b1ff;fill-opacity:1;stroke:#000000;stroke-width:2;stroke-dasharray:none;stroke-opacity:1"
       d="m 97.822305,221.49661 c 0.276165,0.83679 0.943428,1.00871 3.676895,0.94735 1.11753,-0.0251 2.47429,-0.11412 3.01503,-0.19785 l 7e-5,-9e-5 c 1.45277,-0.22495 2.15017,-0.35568 3.60492,-0.67576 1.42976,-0.31457 4.51299,-1.2607 4.71263,-1.44612 0.0685,-0.0636 0.21046,-0.11567 0.3155,-0.11567 0.21681,0 3.44965,-1.57227 4.73795,-2.30426 2.42798,-1.37956 5.6699,-3.75293 7.63434,-5.58902 2.58977,-2.42055 5.77396,-6.26336 7.73072,-9.32973 1.22424,-1.91847 3.83313,-7.04159 4.1465,-8.14256 0.29191,-1.02558 0.82648,-2.75692 0.93092,-3.01503 0.17315,-0.42793 0.76396,-2.43946 0.92405,-3.14612 0.0817,-0.36049 0.20235,-0.86191 0.26819,-1.11425 0.18517,-0.70976 0.65612,-3.11592 0.79538,-4.06374 0.0689,-0.46864 0.18321,-1.2355 0.25412,-1.70414 0.20766,-1.37246 0.52409,-5.51886 0.60786,-7.96505 0.0981,-2.86484 -0.067,-4.96221 -0.75055,-9.53523 -0.24022,-1.60707 -0.91118,-4.25351 -1.69499,-6.6855 -0.41827,-1.29778 -0.92502,-2.8905 -1.12612,-3.53939 -0.2011,-0.64888 -0.41185,-1.26827 -0.46834,-1.37642 -0.0565,-0.10815 -0.4617,-0.95074 -0.90048,-1.87242 -0.43879,-0.92169 -0.96366,-1.95711 -1.16639,-2.30094 -0.50394,-0.85469 -0.99708,-1.73952 -1.61926,-2.90541 -0.28856,-0.54074 -0.59635,-1.10114 -0.68397,-1.24534 -0.2425,-0.39907 -0.88275,-1.5732 -1.5726,-2.88394 -0.34151,-0.64888 -0.75429,-1.35676 -0.91729,-1.57306 -0.91331,-1.21199 -3.20271,-3.17489 -4.43998,-3.8068 -1.10465,-0.56416 -2.08981,-1.69326 -3.14081,-3.59968 -0.66637,-1.20872 -1.64504,-4.23985 -1.94696,-6.03006 -0.41539,-2.46305 -0.61824,-4.16342 -0.89923,-7.53757 -0.072,-0.86519 -0.25254,-2.98809 -0.40109,-4.71757 -0.24355,-2.83556 -0.26475,-3.88523 -0.21578,-10.68369 0.0551,-7.642792 0.0653,-7.833312 0.61311,-11.406288 0.15691,-1.023383 0.24614,-1.430179 0.76199,-3.473838 0.21838,-0.865183 0.47023,-1.926997 0.55967,-2.359589 0.29588,-1.431118 0.79477,-2.960623 1.37989,-4.230499 0.17515,-0.380115 0.31845,-0.751641 0.31845,-0.825613 0,-0.07397 0.26545,-0.698754 0.5899,-1.388404 0.32444,-0.68965 0.58989,-1.308182 0.58989,-1.374514 0,-0.415125 2.84848,-4.722783 4.18368,-6.326826 2.1108,-2.535825 5.93855,-6.373392 7.67981,-7.699512 0.21629,-0.164728 0.42276,-0.338196 0.45881,-0.385485 0.036,-0.04729 0.49873,-0.373766 1.02817,-0.725505 0.52945,-0.351738 1.23733,-0.832694 1.57306,-1.06879 1.40029,-0.984713 1.98436,-1.31607 3.16665,-1.796506 0.68493,-0.278332 1.79769,-0.761494 2.47278,-1.073694 0.6751,-0.312201 1.28055,-0.567637 1.34544,-0.567637 0.0649,0 0.22041,-0.05642 0.34561,-0.125373 0.44872,-0.247152 2.62418,-1.054421 2.84149,-1.054421 0.12197,0 0.33428,-0.06022 0.4718,-0.133813 0.6749,-0.361199 4.86922,-0.841774 6.48377,-0.742896 2.01958,0.123681 3.47831,0.338807 5.17799,0.76362 4.166,1.04124 6.81356,2.686246 10.81478,6.719524 1.99267,2.008639 2.09926,2.133478 3.14559,3.683991 1.34895,1.998953 3.45477,6.534341 3.94827,8.503536 0.93877,3.745924 0.90326,3.481665 0.89191,6.637156 -0.008,2.303736 -0.0604,3.164735 -0.2379,3.932647 -0.12501,0.540739 -0.27801,1.21912 -0.34,1.507514 -0.214,0.995629 -0.55313,2.091531 -0.8315,2.686988 -0.41494,0.887612 -1.45645,2.527437 -1.96711,3.097163 -0.3151,0.351545 -0.67908,0.845637 -0.80883,1.097982 -0.60211,1.170972 -1.89429,2.645563 -2.95138,3.367999 -1.59816,1.092225 -4.2927,2.299143 -6.09443,2.729783 -1.27236,0.30411 -4.72446,0.30999 -6.14201,0.0105 -2.76195,-0.58361 -4.84447,-1.821305 -6.44912,-3.832886 -1.04989,-1.316133 -1.47665,-1.736147 -1.55544,-1.530828 -0.27186,0.708453 0.24003,2.650851 1.01934,3.867939 0.39805,0.621665 1.11196,1.363635 2.05871,2.139625 0.80282,0.65802 3.25698,1.7175 4.71259,2.03445 0.39654,0.0864 0.85776,0.20992 1.02494,0.27461 0.49572,0.19183 4.06229,0.28509 5.07066,0.1326 1.42664,-0.21575 1.81466,-0.28962 2.09741,-0.3993 0.1442,-0.0559 0.58662,-0.20446 0.98317,-0.33005 0.69996,-0.2217 2.22139,-0.94752 3.64868,-1.74065 0.59686,-0.33167 1.64492,-1.08071 2.16661,-1.54846 0.0821,-0.0736 0.44417,-0.36839 0.80466,-0.655108 1.20697,-0.959975 2.05215,-1.825221 2.75394,-2.819309 0.7695,-1.090001 1.47177,-2.315284 1.63731,-2.856674 0.0591,-0.193438 0.26557,-0.764634 0.45872,-1.269323 0.80122,-2.093478 1.22456,-3.481167 1.43967,-4.719177 0.12528,-0.720985 0.28035,-1.593987 0.34459,-1.940004 0.16334,-0.879701 0.14625,-6.498993 -0.023,-7.548779 -0.49597,-3.077067 -0.55246,-3.335361 -1.13579,-5.1931 -0.37562,-1.196207 -0.5546,-1.616395 -1.61929,-3.801558 -0.93287,-1.914616 -3.09704,-4.852015 -5.42099,-7.357832 -2.65721,-2.865166 -3.14715,-3.300892 -5.77614,-5.137046 -1.65294,-1.154457 -5.16459,-2.932557 -7.40648,-3.750225 -0.54074,-0.19722 -1.10115,-0.404722 -1.24534,-0.461117 -0.66206,-0.258929 -2.00974,-0.70392 -2.42513,-0.800758 -0.61273,-0.142839 -1.20388,-0.306782 -2.2285,-0.61802 -0.91455,-0.277803 -1.97416,-0.509107 -2.8184,-0.615237 -3.56278,-0.447877 -4.02191,-0.477927 -6.11147,-0.399998 -2.57671,0.0961 -4.02104,0.248445 -7.3598,0.776307 -1.20392,0.190344 -2.59119,0.472182 -3.63575,0.738641 -1.18888,0.303279 -2.8411,0.799385 -3.04602,0.914618 -0.12519,0.0704 -0.31771,0.128005 -0.42781,0.128005 -0.11011,0 -0.30262,0.05293 -0.42782,0.117631 -0.12519,0.0647 -0.49308,0.219233 -0.81752,0.343414 -0.32444,0.12418 -0.70788,0.273838 -0.85207,0.332573 -0.1442,0.05874 -0.64561,0.235357 -1.11425,0.392492 -2.26712,0.760166 -6.13693,2.51408 -7.20983,3.267711 -0.18026,0.12662 -0.74068,0.451846 -1.24537,0.722722 -1.99856,1.07267 -2.67301,1.450525 -3.93264,2.203234 -2.17096,1.297285 -4.12692,2.592099 -5.38406,3.564157 -0.65408,0.505753 -1.36195,1.047555 -1.57306,1.204005 -0.48768,0.361425 -2.93072,2.195111 -3.79212,2.846279 -0.36049,0.272511 -1.15685,0.953124 -1.76969,1.512474 -0.61283,0.559349 -1.35021,1.215875 -1.6386,1.458947 -1.72162,1.451054 -9.391146,9.459162 -10.762697,11.237822 -0.484958,0.628906 -1.402945,1.681174 -2.039971,2.338374 -0.637025,0.6572 -1.158228,1.250721 -1.158228,1.318936 0,0.06822 -0.105629,0.238383 -0.234731,0.378151 -0.129102,0.139767 -0.817153,1.020988 -1.529002,1.958269 -0.711849,0.937281 -1.656956,2.14657 -2.100237,2.687309 -0.443281,0.540739 -0.948898,1.189626 -1.123594,1.441971 -0.174696,0.252345 -0.619892,0.788451 -0.989323,1.191348 -0.369431,0.402896 -0.92407,1.157351 -1.232529,1.676565 -0.30846,0.519215 -0.670201,1.020629 -0.803869,1.114254 -0.380185,0.266292 -0.934957,1.10369 -1.464223,2.210165 -0.266858,0.55789 -0.485197,1.052713 -0.485197,1.099605 0,0.04689 -0.31574,0.504776 -0.701645,1.017526 -0.385904,0.51274 -0.918411,1.31569 -1.18335,1.78433 -0.264938,0.46864 -0.803765,1.26343 -1.197392,1.76621 -0.393628,0.50277 -0.964695,1.41711 -1.269037,2.03187 -0.304343,0.61475 -0.83577,1.44645 -1.180951,1.84821 -0.345382,0.402 -1.0136,1.49253 -1.485994,2.42513 -0.472117,0.93206 -1.359548,2.55001 -1.972068,3.59543 -0.61252,1.04543 -1.253681,2.19573 -1.424802,2.55622 -0.321342,0.67696 -0.989437,2.34908 -0.989437,2.47638 0,0.0396 -0.155427,0.41301 -0.345394,0.82972 -0.876154,1.9219 -1.072283,2.37389 -1.295753,2.98614 -0.131579,0.36049 -0.27744,0.71443 -0.324137,0.78653 -0.0467,0.0721 -0.161242,0.39654 -0.254545,0.72098 -0.0933,0.32445 -0.216172,0.70788 -0.273042,0.85208 -0.05687,0.1442 -0.2635,0.6751 -0.459177,1.17979 -0.195678,0.50469 -0.403148,1.0356 -0.461045,1.1798 -0.48331,1.20372 -1.450291,4.11214 -1.830515,5.5057 -0.137702,0.50469 -0.406476,1.44853 -0.597277,2.09741 -0.361779,1.23037 -0.521659,1.91315 -0.705992,3.01503 -0.258211,1.5435 -0.436274,2.29405 -0.544249,2.29405 -0.06349,0 -0.268446,-0.24238 -0.455457,-0.53863 -0.457891,-0.72534 -2.616085,-2.89781 -3.268196,-3.2898 -1.117594,-0.6718 -1.87302,-0.89085 -3.065282,-0.88884 -1.569149,0.003 -2.790957,0.46281 -4.217874,1.58855 -2.061513,1.62639 -3.146013,3.15759 -3.840782,5.42276 -0.199025,0.64889 -0.414873,1.29778 -0.479662,1.44197 -0.208635,0.46435 -0.746868,2.20704 -0.91095,2.94949 -0.08764,0.39654 -0.210794,0.92745 -0.273682,1.17979 -0.150611,0.60434 -0.493444,2.12792 -0.663689,2.94949 -0.0747,0.36049 -0.190285,0.8366 -0.256853,1.05801 -0.06657,0.22141 -0.121033,0.54167 -0.121033,0.71168 0,0.17001 -0.0549,0.49026 -0.121995,0.71168 -0.145204,0.47916 -0.764745,2.93599 -0.927934,3.67977 -0.06327,0.2884 -0.146131,0.8488 -0.184124,1.24534 -0.03799,0.39654 -0.166486,1.36988 -0.285538,2.16296 -1.000144,6.66262 -0.999527,13.18903 0.0017,18.28681 0.120367,0.61284 0.271854,1.4092 0.336636,1.76969 0.11041,0.61439 0.380433,1.65279 0.86924,3.34275 0.114697,0.39654 0.256861,0.95694 0.31592,1.24534 0.219029,1.06954 0.426177,1.75887 0.787858,2.62176 0.06044,0.1442 0.299044,0.82258 0.530231,1.50752 0.441765,1.30881 0.659795,1.84119 1.368984,3.34275 1.678523,3.55392 2.452479,5.10802 2.86498,5.75286 0.26074,0.4076 0.474072,0.79402 0.474072,0.85871 0,0.0647 0.04424,0.13729 0.09832,0.16132 0.05407,0.024 0.678468,0.90804 1.387543,1.96446 0.709075,1.05642 1.402204,2.04203 1.540287,2.19025 0.138083,0.14821 0.25106,0.30966 0.25106,0.35878 0,0.22226 1.965934,2.51078 3.930372,4.57529 2.908451,3.05662 6.641262,6.14578 9.112906,7.54155 0.288394,0.16286 0.819301,0.46471 1.179794,0.67079 1.82792,1.04492 3.788468,1.84297 6.6855,2.72139 0.668028,0.20255 1.604163,0.29266 2.091213,0.20129 l 0.465007,-0.0872 v -0.7693 c 0,-0.59616 -0.121605,-1.07232 -0.540304,-2.1156 -0.724598,-1.8055 -0.80078,-2.10186 -0.645371,-2.51061 0.117795,-0.30983 0.1603,-0.32694 0.466039,-0.18764 0.31268,0.14247 0.387656,0.10307 1.062414,-0.55826 0.399296,-0.39135 0.868091,-0.95121 1.041767,-1.24415 0.39116,-0.65975 0.975043,-2.24669 0.975043,-2.65007 0,-0.57688 1.461302,-3.07848 2.340778,-4.00717 1.186427,-1.25283 2.855956,-2.06728 4.41592,-2.15423 0.92562,-0.0516 1.165712,-0.0145 1.966323,0.3035 1.199005,0.47629 1.790178,0.89319 2.830877,1.99639 0.612181,0.64894 1.037436,1.27031 1.470287,2.14835 0.334945,0.67943 0.608991,1.30923 0.608991,1.39957 0,0.0903 0.122582,0.54368 0.272406,1.00743 0.48375,1.49737 1.777994,1.91515 3.715771,4.49165 2.101486,2.83817 2.376315,5.81139 2.559805,6.36737 z"
       id="path365" /></g><g
     id="layer4"
     style="display:inline"><g
       id="g529"
       style="fill:url(#linearGradient537);fill-opacity:1;stroke:#000000;stroke-width:2;stroke-dasharray:none;stroke-opacity:1"><path
         style="fill:url(#linearGradient2);fill-opacity:1;stroke:#000000;stroke-width:2;stroke-dasharray:none;stroke-opacity:1"
         d="m 104.2872,108.51459 c -0.34884,-0.24434 -0.72097,-1.05725 -1.37039,-2.99364 -0.74332,-2.21638 -1.24816,-3.14329 -1.89065,-3.47132 -0.7008,-0.35779 -2.322859,-0.80714 -2.913642,-0.80714 -0.606617,0 -0.721863,0.0569 -1.61549,0.79788 -0.529251,0.43883 -1.670151,1.5173 -2.535333,2.39661 -1.806349,1.83582 -2.593213,2.43398 -2.927495,2.22541 -0.85271,-0.53204 -0.598801,-3.56077 0.55877,-6.665241 0.439382,-1.178369 2.162418,-4.688277 2.782465,-5.668015 1.485849,-2.347797 2.700852,-4.021073 3.451619,-4.7535 0.110856,-0.108148 0.783394,-0.875014 1.494528,-1.704147 2.966278,-3.458479 3.835558,-4.219979 8.469698,-7.419614 2.50525,-1.729744 2.77285,-1.98615 3.36981,-3.228838 0.61116,-1.272234 1.7355,-2.59146 2.20865,-2.59146 0.50552,0 0.96479,0.27836 1.26757,0.768258 0.5656,0.915168 0.14146,1.961825 -1.13186,2.793092 -1.1431,0.746252 -1.49855,1.481103 -2.17692,4.500576 -0.17183,0.764805 -0.77734,3.332894 -0.9118,3.867103 -0.43759,1.738587 -0.81895,4.219585 -1.0478,6.816589 -0.61334,6.960457 -1.04977,10.174687 -1.58975,11.708277 -0.37735,1.0717 -0.99839,1.99187 -1.83091,2.71279 -0.90596,0.78451 -1.31307,0.96008 -1.66107,0.71633 z"
         id="path421" /><path
         style="fill:url(#linearGradient3);fill-opacity:1;stroke:#000000;stroke-width:2;stroke-dasharray:none;stroke-opacity:1"
         d="m 84.490571,199.45574 c -0.27037,-0.27309 -0.808484,-1.04078 -1.195809,-1.70597 -0.88158,-1.51401 -3.086855,-4.84305 -4.21158,-6.35771 -2.320111,-3.12448 -3.906105,-5.19956 -4.328141,-5.66285 -0.197035,-0.2163 -0.970267,-1.28207 -1.718295,-2.36838 -1.276234,-1.8534 -1.515542,-2.21939 -1.879966,-2.87515 -0.08013,-0.1442 -0.539598,-0.85706 -1.021033,-1.58413 -1.109577,-1.67571 -3.06775,-5.55179 -3.538641,-7.00451 -0.198228,-0.61154 -0.565898,-1.87876 -0.817044,-2.81604 -0.251147,-0.93728 -0.513909,-1.88112 -0.583915,-2.09741 -0.163977,-0.50663 -0.362716,-2.16068 -0.527646,-4.39146 -0.07196,-0.97333 -0.200724,-2.38908 -0.286138,-3.14612 -0.21612,-1.91548 0.02994,-7.51104 0.402099,-9.14384 0.143734,-0.63062 0.328459,-1.50052 0.4105,-1.93311 0.307839,-1.62321 0.426403,-2.13058 0.789035,-3.37653 0.204756,-0.70352 0.470409,-1.49988 0.590338,-1.76969 0.795016,-1.7886 1.184164,-2.53283 1.982075,-3.79062 0.495142,-0.78052 0.971886,-1.56661 1.059431,-1.74685 0.262713,-0.5409 0.815518,-2.14679 0.815518,-2.36907 0,-0.22425 0.911426,-1.95951 1.475358,-2.80892 0.191468,-0.28839 0.72916,-1.01983 1.19487,-1.62542 0.507106,-0.65941 1.244166,-1.89507 1.83754,-3.08057 0.890462,-1.77906 1.833469,-3.21507 2.84941,-4.3391 0.195497,-0.21629 0.575133,-0.71771 0.843636,-1.11425 0.792335,-1.17017 1.793197,-2.37007 3.297848,-3.95366 0.77744,-0.81824 1.737971,-1.83959 2.134513,-2.26968 1.13597,-1.23207 2.47653,-2.41755 3.473655,-3.07183 0.50459,-0.33109 1.035497,-0.71157 1.179794,-0.8455 0.144298,-0.13393 0.468824,-0.37956 0.721168,-0.54584 0.538531,-0.35488 1.483899,-1.15512 3.129079,-2.64873 0.653364,-0.59317 1.824076,-1.50263 2.601582,-2.02102 0.777506,-0.51839 1.797081,-1.20037 2.265721,-1.51551 0.996262,-0.66994 1.363692,-0.79031 1.663046,-0.54483 0.193096,0.15835 1.299241,2.36307 2.621671,5.2254 0.24983,0.54074 0.65017,1.39609 0.88965,1.90078 0.23948,0.50469 0.52375,1.12408 0.63172,1.37642 0.52454,1.22598 0.80621,1.79456 1.31886,2.66224 0.98757,1.6715 1.90174,3.64775 3.15828,6.82754 1.32893,3.36298 1.37097,3.53891 1.63212,6.83071 0.10225,1.28892 0.25319,1.78078 0.81611,2.65938 0.60184,0.93934 0.91069,2.80797 1.03377,6.25462 0.10158,2.84457 0.16782,3.44968 0.51658,4.71918 0.73002,2.65726 0.8634,5.41197 0.37266,7.69678 -0.30949,1.44093 -0.37619,3.26611 -0.17724,4.84977 0.1056,0.84053 1.3e-4,1.62492 -0.32236,2.3975 -0.0602,0.1442 -0.26959,0.75953 -0.46532,1.3674 -0.19574,0.60788 -0.67193,1.73917 -1.05821,2.51399 -0.6698,1.34353 -0.70231,1.45641 -0.70231,2.43813 0,0.87434 -0.0665,1.18674 -0.44126,2.07411 -0.60624,1.43531 -1.44937,3.12222 -1.88757,3.77655 -0.40926,0.61113 -1.40888,2.62627 -1.8962,3.82259 -0.27809,0.68266 -0.71353,1.39783 -2.18721,3.59224 -0.77264,1.15051 -1.92843,2.46219 -3.99624,4.53523 -1.222585,1.22567 -2.725696,2.7889 -3.340246,3.47384 -1.056526,1.17753 -1.918506,2.09615 -3.813161,4.06373 -0.45127,0.46864 -0.954274,1.05854 -1.117785,1.31089 -0.16351,0.25234 -0.584429,0.7865 -0.935375,1.18702 -0.773646,0.88293 -1.20188,1.73853 -2.331419,4.65812 -0.505212,1.30585 -0.992449,2.35835 -1.16819,2.52345 -0.495987,0.46595 -1.16745,0.38454 -1.759333,-0.21331 z"
         id="path379" /><path
         style="fill:url(#linearGradient4);fill-opacity:1;stroke:#000000;stroke-width:2;stroke-dasharray:none;stroke-opacity:1"
         d="m 64.985149,200.04309 c -1.156904,-0.59069 -3.059055,-1.53495 -4.227003,-2.09837 -1.167949,-0.56342 -2.424686,-1.22706 -2.792749,-1.47475 -0.368064,-0.24768 -0.701683,-0.45034 -0.741375,-0.45034 -0.173642,0 -2.654801,-2.11716 -3.752638,-3.20211 -3.8085,-3.76378 -6.299786,-7.44111 -7.95483,-11.74195 -0.763743,-1.98468 -1.225145,-3.59339 -1.428723,-4.98135 -0.07931,-0.54074 -0.202438,-1.31612 -0.273614,-1.72306 -0.234518,-1.34086 -0.289279,-3.55617 -0.129149,-5.22462 0.451806,-4.70751 0.457128,-4.73825 1.441224,-8.3241 0.107649,-0.39225 0.595216,-1.83299 0.80961,-2.39236 0.06218,-0.16222 0.161764,-0.42768 0.221308,-0.5899 0.127536,-0.34746 1.501093,-3.12931 1.834215,-3.71482 1.373032,-2.41329 1.969402,-3.33117 2.164343,-3.33117 0.09375,0 0.290985,0.22121 0.438302,0.49158 0.147317,0.27037 0.639117,1.14047 1.092888,1.93355 0.453771,0.79309 0.935624,1.63823 1.070783,1.8781 0.135159,0.23988 0.598138,0.98988 1.028843,1.66667 0.430705,0.6768 0.783099,1.2601 0.783099,1.29623 0,0.0361 0.332278,0.58075 0.738394,1.21028 0.625224,0.96918 3.849694,7.2006 3.849694,7.4397 0,0.0437 0.113932,0.32958 0.253183,0.63521 0.13925,0.30563 0.345264,0.83663 0.457809,1.18 0.209657,0.63966 0.924023,2.57636 1.123597,3.04617 0.179705,0.42303 0.489609,1.37025 0.793431,2.42513 0.155742,0.54074 0.331308,1.13063 0.390146,1.31088 0.05884,0.18025 0.209005,0.68166 0.333705,1.11425 0.124701,0.43259 0.427049,1.43542 0.671886,2.2285 0.463783,1.5023 0.590701,1.96422 0.81041,2.94949 0.07235,0.32444 0.220228,0.97333 0.32862,1.44197 0.108392,0.46864 0.264208,1.2355 0.346257,1.70414 0.08205,0.46864 0.202493,1.11753 0.267651,1.44197 0.150587,0.74983 0.450321,2.62593 0.649238,4.06374 0.08478,0.61284 0.207366,1.24975 0.272404,1.41537 0.06504,0.16561 0.118097,0.43106 0.117908,0.58989 -1.88e-4,0.15883 0.08382,0.67222 0.186686,1.14086 0.102865,0.46864 0.279956,1.47146 0.393534,2.2285 0.113578,0.75703 0.31815,2.02531 0.454603,2.81839 0.420703,2.44517 0.443524,2.68819 0.251662,2.67981 -0.09454,-0.004 -1.118449,-0.4908 -2.275352,-1.08148 z"
         id="path373" /><path
         style="fill:url(#linearGradient5);fill-opacity:1;stroke:#000000;stroke-width:2;stroke-dasharray:none;stroke-opacity:1"
         d="m 97.492982,209.35581 c -1.158043,0.30759 -1.16845,-0.50039 -1.095505,-0.86089 0.07294,-0.36049 0.03307,-1.28717 0.119375,-1.79186 0.161943,-0.94695 0.183941,-1.03611 0.663053,-2.68731 0.156901,-0.54073 0.334354,-1.21912 0.39434,-1.50751 0.05999,-0.28839 0.174506,-0.78981 0.254489,-1.11425 0.07998,-0.32444 0.189667,-0.82631 0.243741,-1.11526 0.05407,-0.28894 0.22595,-0.90834 0.381945,-1.37642 0.155995,-0.46809 0.369882,-1.20501 0.475304,-1.6376 0.495737,-2.03421 1.035558,-3.57776 1.934076,-5.53022 0.20528,-0.44607 0.37323,-0.844 0.37323,-0.88429 0,-0.0403 0.21284,-0.53067 0.47298,-1.08974 0.26014,-0.55907 0.54985,-1.23025 0.6438,-1.49153 0.0939,-0.26127 0.41201,-0.90069 0.70681,-1.42093 0.2948,-0.52024 0.536,-0.971 0.536,-1.00169 0,-0.0965 1.87516,-2.97414 2.33174,-3.57825 1.80125,-2.38331 4.9543,-5.73406 6.33712,-6.73447 0.31507,-0.22794 0.60235,-0.44776 0.6384,-0.48848 0.14743,-0.16655 1.41891,-1.04856 1.51158,-1.04856 0.055,0 0.35105,-0.2057 0.65787,-0.45711 0.30681,-0.25141 0.93228,-0.65439 1.38993,-0.89551 0.45764,-0.24111 1.2745,-0.70068 1.81524,-1.02125 1.02534,-0.60787 2.40054,-1.28958 3.40829,-1.68955 0.32445,-0.12877 0.98956,-0.41748 1.47803,-0.64157 0.48847,-0.2241 0.9383,-0.40745 0.99962,-0.40745 0.14633,0 1.46567,-0.57058 2.35922,-1.0203 0.45486,-0.22893 1.25608,-0.89456 2.24328,-1.86364 1.35745,-1.33254 1.57927,-1.61403 1.91112,-2.42514 0.34135,-0.83434 0.37452,-1.05442 0.36548,-2.42513 -0.016,-2.43089 -0.56573,-3.8596 -1.96299,-5.102 -1.01318,-0.90089 -1.84216,-1.22161 -3.34456,-1.29395 -1.71869,-0.0828 -2.49129,0.1764 -3.02353,1.01423 -0.41063,0.64639 -0.4732,1.26296 -0.18478,1.82071 0.26835,0.51892 1.24526,0.93925 2.18298,0.93925 0.65906,0 0.90878,0.10979 0.90878,0.39955 0,0.13223 0.059,0.27687 0.13109,0.32143 0.0721,0.0446 0.13109,0.46161 0.13109,0.92678 0,1.1063 -0.3566,1.86876 -1.32115,2.82483 -0.67308,0.66717 -0.81199,0.74519 -1.47398,0.8279 -1.02306,0.12782 -2.53636,-0.0424 -3.23493,-0.36382 -0.89413,-0.41145 -1.96423,-1.56345 -2.51563,-2.70817 -1.16003,-2.40829 -1.1122,-4.30426 0.16562,-6.56537 1.24157,-2.19697 2.59799,-3.4233 4.57851,-4.13938 0.85557,-0.30935 1.18731,-0.35656 2.55622,-0.36378 1.55046,-0.008 2.63256,0.10207 3.14612,0.32057 0.14419,0.0614 0.47938,0.1779 0.74486,0.259 1.27574,0.38971 3.03639,1.71046 4.02163,3.01682 0.19027,0.25229 0.44527,0.56891 0.56666,0.7036 0.24425,0.27101 1.16599,2.11716 1.4159,2.83589 0.0877,0.25234 0.20569,0.57679 0.26209,0.72098 1.05187,2.68922 1.2067,3.1921 1.57405,5.11245 0.48763,2.54907 0.65437,4.36404 0.65635,7.1443 0.003,4.19485 -0.20619,5.31874 -1.88538,10.13033 -0.68021,1.94907 -0.99834,2.5335 -1.99258,3.66055 -0.40051,0.454 -0.96606,1.29738 -1.25679,1.87417 -0.46394,0.92044 -1.4312,2.28085 -1.70776,2.4019 -0.0532,0.0233 -0.31485,0.34771 -0.58152,0.72098 -1.88846,2.64336 -6.23459,5.79711 -11.64913,8.45314 -1.54114,0.75598 -3.60119,1.73142 -3.93265,1.86211 -0.14419,0.0568 -0.54973,0.23099 -0.9012,0.38697 -0.35146,0.15598 -0.94136,0.40273 -1.31088,0.54832 -0.36952,0.1456 -1.2718,0.55477 -2.00506,0.90926 -0.73327,0.3545 -1.37005,0.64454 -1.41508,0.64454 -0.045,0 -0.71337,0.30601 -1.48519,0.68002 -1.49281,0.72338 -3.13092,1.7367 -4.41835,2.73311 -1.23345,0.95464 -3.412301,3.16218 -3.723862,3.77289"
         id="path364" /></g></g><g
     id="layer7"><g
       id="g536"
       style="fill:#ff6600;fill-opacity:1;stroke:#000000;stroke-width:1;stroke-dasharray:none;stroke-opacity:1"><path
         style="display:inline;fill:#ff6600;fill-opacity:1;stroke:#000000;stroke-width:1;stroke-dasharray:none;stroke-opacity:1"
         d="m 102.22025,200.86688 c 5.87479,-3.19794 11.9875,-5.95014 17.75066,-9.35436 1.5902,-2.88403 -4.52459,0.74841 -5.8094,1.06006 -3.03637,0.44882 -7.36064,5.05286 -8.68113,4.27889 1.34069,-3.47774 5.62739,-5.6635 5.3393,-9.74621 -4.60234,2.87145 -6.2649,8.41488 -8.92315,12.84891 -0.90677,0.18548 -0.22536,1.68349 0.32372,0.91271 z"
         id="path448" /><path
         style="display:inline;fill:#ff6600;fill-opacity:1;stroke:#000000;stroke-width:1;stroke-dasharray:none;stroke-opacity:1"
         d="m 85.652666,193.65046 c 2.635974,-7.01158 4.746359,-14.2922 8.655718,-20.7381 2.528725,-5.15869 3.58813,-10.90552 3.115136,-16.61592 0.08496,-5.38361 -0.332111,-10.96616 -3.011565,-15.76462 -1.549765,-2.27898 -2.240099,-9.72471 -2.423446,-9.27602 -2.019597,5.98595 -8.769648,8.53754 -11.24384,14.30762 -5.448968,10.39892 -6.535906,23.20292 -1.670498,34.03744 1.870577,4.86539 4.049324,9.61705 5.658604,14.57971 0.40128,0.55198 1.14022,0.0381 0.919891,-0.53011 z"
         id="path380" /><path
         style="display:inline;fill:#ff6600;fill-opacity:1;stroke:#000000;stroke-width:1;stroke-dasharray:none;stroke-opacity:1"
         d="m 63.745859,195.73399 c -2.234722,-8.01216 -4.411558,-16.05912 -6.983532,-23.96118 -1.567934,-2.01551 -0.502882,4.3118 -0.2593,5.52379 1.534463,5.60203 3.789735,11.04671 4.575484,16.8269 -4.000304,-4.14021 -8.376232,-8.04005 -10.097681,-13.71729 -1.778372,-2.63145 -3.282807,-8.62057 -3.847546,-9.70607 -0.681773,7.55977 3.344756,14.92365 8.628093,20.0596 2.251923,1.97526 5.299547,4.63098 7.984482,4.97425 z"
         id="path374" /><path
         style="display:inline;fill:#ff6600;fill-opacity:1;stroke:#000000;stroke-width:1;stroke-dasharray:none;stroke-opacity:1"
         d="m 67.463103,212.93741 c -6.341257,-0.40602 -4.774675,-11.33092 1.598363,-9.28881 5.363768,0.82421 5.560304,9.82211 -0.386758,9.35104 l -0.615166,-0.0185 z"
         id="path367" /><path
         style="display:inline;fill:#ff6600;fill-opacity:1;stroke:#000000;stroke-width:1;stroke-dasharray:none;stroke-opacity:1"
         d="m 105.82517,217.19955 c -5.67305,-1.35362 -4.20903,-10.28741 1.62609,-9.86571 6.07024,0.0125 6.12273,9.94753 0.0429,10.04058 -0.56092,0.0369 -1.12768,-0.0237 -1.66895,-0.17487 z"
         id="path366" /><path
         style="display:inline;fill:#ff6600;fill-opacity:1;stroke:#000000;stroke-width:1;stroke-dasharray:none;stroke-opacity:1"
         d="m 88.390446,230.43446 c 5.113666,-1.23978 7.436963,-7.48561 4.872427,-11.95178 -2.231105,-3.9613 -8.129996,-9.20517 -12.083767,-4.36812 -4.989619,3.88903 -4.455616,12.53148 1.184885,15.5323 1.795982,1.0586 4.019067,1.40582 6.026455,0.7876 z"
         id="path356" /></g></g><g
     id="layer1"
     style="display:inline"><g
       id="g535"
       style="display:inline;fill:#000000;fill-opacity:1"><path
         style="fill:#000000;fill-opacity:1"
         d="m 153.30964,47.305861 c 0.48073,-0.200861 1.20283,-0.931831 1.33647,-1.352883 0.11151,-0.351333 -0.24145,-1.123721 -0.79198,-1.733087 -0.57585,-0.637396 -1.13358,-0.776704 -1.81501,-0.453345 -1.46272,0.694106 -1.50477,2.472321 -0.0812,3.431697 0.51732,0.348625 0.73364,0.365848 1.35167,0.107618 z"
         id="path528" /><path
         style="fill:#000000;fill-opacity:1"
         d="m 146.2066,46.847112 c 0.5849,-0.584901 0.64919,-0.707337 0.64919,-1.236195 0,-0.520302 -0.0729,-0.666229 -0.6415,-1.284353 l -0.64151,-0.697356 -0.79788,0.0046 c -0.72749,0.0042 -0.83858,0.044 -1.25927,0.451752 -0.40566,0.393182 -0.46139,0.525726 -0.46139,1.097323 0,0.850531 0.49969,1.559316 1.50642,2.136761 0.56327,0.323083 0.96597,0.207483 1.64594,-0.472485 z"
         id="path527" /><path
         style="fill:#000000;fill-opacity:1"
         d="m 138.47426,47.670022 c 0.66999,-0.605297 0.90951,-1.064362 0.90951,-1.743189 0,-1.017039 -1.5264,-2.200319 -2.37985,-1.844881 -0.82846,0.34503 -1.42171,1.274069 -1.42171,2.226404 0,0.603007 0.038,0.67349 0.66962,1.241351 0.88779,0.798206 1.43905,0.828049 2.22243,0.120315 z"
         id="path526" /><path
         style="fill:#000000;fill-opacity:1"
         d="m 160.83515,48.795785 c 0.50348,-0.311171 1.09603,-1.233155 1.0953,-1.704256 -9.9e-4,-0.63706 -0.95179,-1.80043 -1.50702,-1.843946 -1.29597,-0.101569 -2.29405,0.656313 -2.29405,1.741964 0,0.460155 0.47971,1.253207 1.04658,1.730197 0.50563,0.425455 1.05322,0.450551 1.65919,0.07604 z"
         id="path525" /><path
         style="fill:#000000;fill-opacity:1"
         d="m 130.91572,49.860788 c 0.46455,-0.176624 1.23072,-1.023344 1.32839,-1.468066 0.098,-0.446104 -0.0325,-1.110258 -0.29758,-1.514849 -0.55375,-0.845117 -2.02452,-1.119459 -2.61069,-0.48697 -0.44703,0.482356 -0.70131,1.172127 -0.70131,1.902426 0,0.55605 0.0619,0.698996 0.50406,1.163785 0.53604,0.563494 1.04981,0.680198 1.77713,0.403674 z"
         id="path524" /><path
         style="fill:#000000;fill-opacity:1"
         d="m 167.96951,51.026955 c 0.55493,-0.569726 0.64693,-0.73816 0.64693,-1.184406 0,-0.912184 -0.90833,-1.954685 -1.70054,-1.951744 -0.38022,0.0014 -1.52456,0.624196 -1.88725,1.027101 -0.17747,0.197142 -0.22266,0.382087 -0.16386,0.670645 0.0446,0.21914 0.11642,0.568935 0.15949,0.777323 0.0431,0.208388 0.25383,0.591821 0.46835,0.852074 0.36165,0.438739 0.44246,0.473186 1.11,0.473186 0.69269,0 0.74445,-0.02515 1.36688,-0.664179 z"
         id="path523" /><path
         style="fill:#000000;fill-opacity:1"
         d="m 125.38341,51.367117 c 0.46642,-0.466417 0.8102,-1.295131 0.70732,-1.70505 -0.13243,-0.527616 -1.15733,-1.11705 -1.94231,-1.11705 -0.5728,0 -0.68783,0.0546 -1.20536,0.572129 -0.70538,0.705378 -0.86865,1.278075 -0.50472,1.770396 0.37434,0.506403 1.04515,0.790108 1.88518,0.797296 0.61276,0.0052 0.79009,-0.04791 1.05989,-0.317721 z"
         id="path522" /><path
         style="fill:#000000;fill-opacity:1"
         d="m 118.86846,54.457136 c 0.56015,-0.327415 1.24534,-1.271464 1.24534,-1.715834 0,-0.737647 -1.3225,-1.505357 -2.42026,-1.404964 -0.53664,0.04908 -0.71307,0.13435 -1.00739,0.486898 -0.38407,0.460059 -0.58178,1.245471 -0.43558,1.730377 0.0498,0.165263 0.27262,0.492194 0.49511,0.726514 0.35607,0.37501 0.48386,0.424889 1.06702,0.416456 0.37841,-0.0055 0.83113,-0.108149 1.05576,-0.239447 z"
         id="path521" /><path
         style="fill:#000000;fill-opacity:1"
         d="m 173.45953,55.103086 c 0.71761,-0.366096 1.05598,-0.845756 1.05539,-1.496079 -10e-4,-1.101217 -0.76508,-1.784785 -1.995,-1.784785 -0.58236,0 -0.77678,0.06525 -1.17667,0.394864 -0.88141,0.726535 -0.93735,1.770513 -0.13479,2.515454 0.7546,0.700418 1.39715,0.806187 2.25107,0.370546 z"
         id="path520" /><path
         style="fill:#000000;fill-opacity:1"
         d="m 113.43714,57.339313 c 0.40909,-0.428077 0.62821,-1.41095 0.43519,-1.952101 -0.30571,-0.857127 -1.84614,-1.481506 -2.62573,-1.064284 -0.43927,0.23509 -0.96442,1.152832 -0.96442,1.685399 0,0.902398 0.97409,1.672409 2.14876,1.69858 0.54717,0.01219 0.6948,-0.04174 1.0062,-0.367594 z"
         id="path519" /><path
         style="fill:#000000;fill-opacity:1"
         d="m 177.83401,59.409323 c 0.69012,-0.35456 1.00731,-0.79708 1.00731,-1.405333 0,-1.527062 -1.51879,-2.026765 -2.72008,-0.894943 -0.65147,0.613797 -0.516,1.462394 0.33238,2.082035 0.52724,0.385085 0.93129,0.448967 1.38039,0.218241 z"
         id="path518" /><path
         style="fill:#000000;fill-opacity:1"
         d="m 107.24968,61.195216 c 1.47963,-1.336749 0.59569,-3.342935 -1.47291,-3.342935 -1.54703,0 -2.17835,1.005162 -1.51615,2.41394 0.43714,0.929971 1.03097,1.354134 1.92467,1.374766 0.46174,0.01066 0.64338,-0.06541 1.06439,-0.445771 z"
         id="path517" /><path
         style="fill:#000000;fill-opacity:1"
         d="m 165.56864,63.75865 c 0.3829,-0.319432 0.37224,-0.549795 -0.0448,-0.966791 -0.5086,-0.508599 -1.34504,-0.85225 -2.01988,-0.829865 -0.51294,0.01701 -0.5956,0.05984 -0.63359,0.328256 -0.0416,0.293825 -0.0779,0.304417 -0.75376,0.219971 -0.65192,-0.08145 -0.71006,-0.06728 -0.71006,0.173047 0,0.448513 1.23855,1.017134 2.4442,1.122136 0.56081,0.04884 1.04648,0.115628 1.07926,0.148414 0.11745,0.117446 0.3485,0.04683 0.63859,-0.195168 z"
         id="path516" /><path
         style="fill:#000000;fill-opacity:1"
         d="m 151.18118,63.7358 c 0.53288,-0.299498 1.04953,-1.075627 1.04874,-1.575454 -5.4e-4,-0.343604 -0.43964,-1.133471 -0.76986,-1.384863 -0.33168,-0.252501 -1.26772,-0.198642 -1.95116,0.112268 -0.68595,0.312054 -1.6044,1.110299 -1.6044,1.394419 0,0.312974 0.70031,1.178306 1.17979,1.457797 0.60633,0.353428 1.46366,0.351724 2.09689,-0.0042 z"
         id="path515" /><path
         style="fill:#000000;fill-opacity:1"
         d="m 182.61011,63.79032 c 0.42488,-0.474726 0.51119,-0.833837 0.43473,-1.80876 -0.0549,-0.6996 -0.91455,-1.376427 -1.74828,-1.376427 -0.31717,0 -0.59623,0.132253 -0.98967,0.469024 -0.53636,0.459103 -0.54795,0.486617 -0.54795,1.300825 0,0.712465 0.0508,0.892157 0.35399,1.252498 0.76416,0.908147 1.77134,0.973825 2.49718,0.16284 z"
         id="path514" /><path
         style="fill:#000000;fill-opacity:1"
         d="m 101.00377,65.207851 c 0.93891,-0.824376 1.264,-2.037745 0.76515,-2.855868 -0.41181,-0.67538 -1.54275,-1.058206 -2.4148,-0.817421 -1.193865,0.329642 -1.63844,2.235676 -0.724673,3.106902 0.430232,0.410202 1.389873,0.935937 1.718233,0.94133 0.12367,0.002 0.41891,-0.166693 0.65609,-0.374943 z"
         id="path513" /><path
         style="fill:#000000;fill-opacity:1"
         d="m 144.37877,66.378831 c 0.39902,-0.477972 0.60639,-1.50023 0.44935,-2.215214 -0.12295,-0.559788 -0.88262,-1.198895 -1.42506,-1.198895 -0.49832,0 -1.56634,0.629314 -1.79587,1.058179 -0.48902,0.913761 -0.39569,1.77152 0.27035,2.484517 0.3795,0.406264 0.42182,0.418477 1.26413,0.364843 0.79726,-0.05077 0.90263,-0.09279 1.2371,-0.49343 z"
         id="path512" /><path
         style="fill:#000000;fill-opacity:1"
         d="m 94.80897,69.045762 c 0.497064,-0.566124 0.66024,-0.957686 0.66024,-1.584329 0,-0.900788 -0.853331,-1.743858 -1.765082,-1.743858 -0.503784,0 -1.404079,0.568679 -1.662176,1.049928 -0.300847,0.560962 -0.316573,1.539852 -0.03128,1.947164 0.360304,0.514407 0.974359,0.803444 1.708039,0.803976 0.611114,4.44e-4 0.713766,-0.04408 1.090259,-0.472881 z"
         id="path511" /><path
         style="fill:#000000;fill-opacity:1"
         d="m 186.21288,70.023479 c 0.19709,-0.233061 0.45079,-0.702069 0.56378,-1.042242 0.18081,-0.544384 0.1828,-0.672648 0.0166,-1.07044 -0.33161,-0.793652 -0.68268,-1.013428 -1.61887,-1.013428 -0.46418,0 -0.82735,0.05754 -0.82735,0.131088 0,0.0721 -0.0832,0.131088 -0.18498,0.131088 -0.10174,0 -0.3377,0.181495 -0.52436,0.403323 -0.36048,0.428417 -0.43915,1.02131 -0.21406,1.61335 0.1422,0.374022 0.85808,1.102608 1.25112,1.27333 0.48681,0.211458 1.15569,0.02618 1.53813,-0.426069 z"
         id="path510" /><path
         style="fill:#000000;fill-opacity:1"
         d="m 137.87625,71.24583 c 0.39482,-0.272295 0.5417,-0.473574 0.59455,-0.81476 0.12164,-0.785193 -0.0742,-1.330756 -0.66854,-1.862326 -0.47219,-0.422321 -0.6376,-0.491581 -1.17403,-0.491581 -0.5549,0 -0.69701,0.06528 -1.2767,0.58647 -0.35876,0.322558 -0.72952,0.772909 -0.82391,1.000779 -0.15374,0.371159 -0.14034,0.473249 0.12861,0.980235 0.60112,1.133112 2.05513,1.404579 3.22002,0.601183 z"
         id="path509" /><path
         style="fill:#000000;fill-opacity:1"
         d="m 97.435533,72.884734 c 0,-0.09558 0.147474,-0.312327 0.327721,-0.481659 0.368724,-0.346399 0.400629,-0.53081 0.16386,-0.9471 -0.397599,-0.699062 -0.982986,-0.964422 -1.619652,-0.7342 -0.39998,0.144634 -0.444988,0.21146 -0.444988,0.660707 0,0.830886 0.606439,1.676034 1.202645,1.676034 0.220218,0 0.370414,-0.07047 0.370414,-0.173782 z"
         id="path508" /><path
         style="fill:#000000;fill-opacity:1"
         d="m 88.351505,74.075979 c 0.420302,-0.18608 0.551699,-0.300448 0.863607,-0.751683 0.506573,-0.732856 0.0411,-2.210834 -0.84584,-2.685736 -0.462845,-0.247825 -0.505297,-0.249021 -1.189042,-0.03349 -0.389983,0.122931 -0.833696,0.356561 -0.986028,0.519177 -0.846385,0.90352 -0.698178,2.500593 0.271176,2.922194 0.524284,0.228026 1.406587,0.241843 1.886127,0.02954 z"
         id="path507" /><path
         style="fill:#000000;fill-opacity:1"
         d="m 132.64229,76.797873 c 0.76446,-0.380945 1.10468,-0.884071 1.10468,-1.63361 0,-1.102004 -0.67226,-1.974659 -1.5212,-1.974659 -0.89955,0 -2.14927,1.011256 -2.14927,1.73916 0,0.488353 0.44028,1.442058 0.85907,1.86084 0.42144,0.42145 0.87318,0.423638 1.70672,0.0083 z"
         id="path506" /><path
         style="fill:#000000;fill-opacity:1"
         d="m 188.27941,77.974463 c 1.2495,-0.646144 1.53369,-2.673783 0.47836,-3.412969 -0.96635,-0.676857 -3.23095,0.596033 -3.23095,1.816058 0,0.408621 0.60657,1.184983 1.17979,1.510054 0.56129,0.318298 1.07082,0.346437 1.5728,0.08686 z"
         id="path505" /><path
         style="fill:#000000;fill-opacity:1"
         d="m 91.351477,78.815551 c 0.874119,-0.821192 0.922872,-1.767046 0.149779,-2.905866 -0.475478,-0.700412 -1.59107,-0.401159 -2.240967,0.601131 -0.563084,0.868406 -0.395244,1.869068 0.428594,2.555275 0.312536,0.260325 1.272841,0.115614 1.662594,-0.25054 z"
         id="path504" /><path
         style="fill:#000000;fill-opacity:1"
         d="m 82.53586,78.785881 c 0.967733,-0.738126 1.071467,-2.091095 0.222677,-2.904288 -1.02749,-0.984398 -3.13254,0.115217 -3.192625,1.667731 -0.01776,0.458959 0.05299,0.663377 0.354305,1.023597 0.485318,0.580203 0.659478,0.65101 1.480324,0.601848 0.489906,-0.02934 0.805787,-0.137542 1.135319,-0.388888 z"
         id="path503" /><path
         style="fill:#000000;fill-opacity:1"
         d="m 129.56242,83.116419 c 0.58184,-0.392109 1.03843,-1.085852 1.03843,-1.577808 0,-0.539325 -0.57943,-1.48638 -1.06212,-1.735988 -0.36875,-0.19069 -0.43487,-0.186396 -0.94529,0.0614 -0.30184,0.146534 -0.77002,0.449227 -1.04039,0.672652 -0.41815,0.345545 -0.49158,0.484415 -0.49158,0.929654 0,0.617004 0.14974,0.944058 0.69689,1.522125 0.4995,0.527732 1.1431,0.573385 1.80406,0.127969 z"
         id="path502" /><path
         style="fill:#000000;fill-opacity:1"
         d="m 157.2519,83.490008 c 1.18244,-0.247397 1.66401,-0.60335 1.66401,-1.229943 0,-0.869371 -0.62202,-1.72952 -1.25071,-1.72952 -0.56112,0 -1.64174,0.413881 -1.95076,0.74715 -0.39011,0.420712 -0.56756,1.443265 -0.32902,1.895958 0.30055,0.570369 0.49495,0.603318 1.86648,0.316355 z"
         id="path501" /><path
         style="fill:#000000;fill-opacity:1"
         d="m 85.368769,84.401086 c 0.205479,-0.106257 0.585982,-0.441319 0.845564,-0.744581 0.410282,-0.479323 0.471966,-0.640195 0.471966,-1.2309 0,-0.559403 -0.06109,-0.740602 -0.345597,-1.02511 -0.305216,-0.305217 -0.449103,-0.345597 -1.231474,-0.345597 -0.790691,0 -0.928379,0.0397 -1.281408,0.36948 -0.740948,0.692149 -0.734267,2.246702 0.01218,2.835041 0.477848,0.376632 0.983738,0.423512 1.528766,0.141667 z"
         id="path500" /><path
         style="fill:#000000;fill-opacity:1"
         d="m 76.206692,84.725467 c 0.256444,-0.07124 0.639261,-0.3101 0.850706,-0.530801 0.339229,-0.354079 0.38248,-0.48908 0.367744,-1.147851 -0.01984,-0.887173 -0.329886,-1.677323 -0.70485,-1.796332 -0.833088,-0.264412 -2.09041,0.483295 -2.606939,1.550301 -0.466069,0.96277 -0.32191,1.703947 0.381741,1.962675 0.325429,0.119658 1.2152,0.09991 1.711598,-0.03799 z"
         id="path499" /><path
         style="fill:#000000;fill-opacity:1"
         d="m 188.92131,85.78364 c 0.66587,-0.474649 1.3251,-1.476614 1.3242,-2.012648 -6.9e-4,-0.405577 -0.42029,-1.051065 -0.93874,-1.444104 -0.42047,-0.318751 -0.83014,-0.416391 -1.5698,-0.37414 -0.45315,0.02589 -1.75316,1.292607 -1.85459,1.807115 -0.0947,0.48006 0.34963,1.267437 1.09523,1.941044 0.49871,0.450547 0.59484,0.487259 1.07494,0.410489 0.28998,-0.04637 0.68093,-0.193861 0.86876,-0.327756 z"
         id="path498" /><path
         style="fill:#000000;fill-opacity:1"
         d="m 151.11616,86.051793 c 0.51635,-0.349047 0.52495,-0.368058 0.56339,-1.245887 0.0349,-0.795815 0.002,-0.940533 -0.31013,-1.349218 -0.41534,-0.544536 -1.05281,-0.95865 -1.47675,-0.959329 -0.63911,-0.001 -1.72599,1.571132 -1.72599,2.496607 0,0.635192 0.39485,1.297082 0.84496,1.416395 0.66018,0.174998 1.53594,0.02579 2.10452,-0.358568 z"
         id="path497" /><path
         style="fill:#000000;fill-opacity:1"
         d="m 127.20283,90.326272 c 0.65871,-0.443909 1.07433,-1.123671 0.97992,-1.602712 -0.12506,-0.634529 -0.75411,-1.538855 -1.18682,-1.706182 -0.57007,-0.220439 -1.37007,-0.0097 -1.9956,0.525754 -0.84662,0.724672 -0.88865,1.797114 -0.10308,2.630057 0.38439,0.407573 0.49493,0.451151 1.14438,0.451151 0.53068,0 0.8347,-0.07804 1.1612,-0.298068 z"
         id="path496" /><path
         style="fill:#000000;fill-opacity:1"
         d="m 79.813783,91.477708 c 0.476214,-0.27908 0.580281,-0.408722 0.580281,-0.722889 0,-0.607477 -0.488514,-1.751291 -0.927198,-2.170956 -0.3558,-0.340374 -0.489994,-0.383036 -1.165688,-0.370585 -0.950427,0.01751 -1.50228,0.37226 -1.869096,1.201509 -0.223471,0.505194 -0.237718,0.657679 -0.105235,1.12633 0.165452,0.585278 0.444668,0.990585 0.857177,1.244274 0.437002,0.268752 1.947766,0.09199 2.629759,-0.307683 z"
         id="path495" /><path
         style="fill:#000000;fill-opacity:1"
         d="m 69.394683,92.975362 c 0.515124,-0.366801 1.036784,-1.292222 1.036186,-1.838186 -5.04e-4,-0.459695 -0.392662,-1.235128 -0.769861,-1.522283 -0.623437,-0.474612 -2.303051,0.06352 -2.983753,0.955966 -0.594062,0.778857 -0.425728,1.82353 0.382239,2.372149 0.585065,0.397267 1.799095,0.414087 2.335189,0.03235 z"
         id="path494" /><path
         style="fill:#000000;fill-opacity:1"
         d="m 187.77187,93.132696 c 0.87772,-0.556632 1.26258,-1.550572 0.88576,-2.28757 -0.0805,-0.157482 -0.38775,-0.537037 -0.68274,-0.843455 -0.47319,-0.491531 -0.60497,-0.557125 -1.11934,-0.557125 -0.81045,0 -1.75634,0.706559 -2.11945,1.583175 -0.4137,0.998766 0.74497,2.446653 1.97762,2.471259 0.2999,0.006 0.67695,-0.124533 1.05815,-0.366284 z"
         id="path493" /><path
         style="fill:#000000;fill-opacity:1"
         d="m 147.88791,93.305489 c 0.43212,-0.363602 0.80312,-1.006561 0.80312,-1.391836 0,-0.133906 -0.12621,-0.511972 -0.28047,-0.840147 -0.6824,-1.451734 -1.62879,-1.772946 -2.61051,-0.886025 -0.55544,0.501812 -0.91058,1.165217 -0.91058,1.70099 0,0.202199 0.24839,0.570946 0.69563,1.032697 0.64512,0.666046 0.73958,0.718201 1.30083,0.718201 0.45726,0 0.70218,-0.08161 1.00198,-0.33388 z"
         id="path492" /><path
         style="fill:#000000;fill-opacity:1"
         d="m 126.02746,98.063437 c 1.31738,-1.134165 1.34926,-2.459447 0.0824,-3.425722 -0.91737,-0.699709 -2.16173,-0.233343 -2.73292,1.024248 -0.46316,1.019751 -0.31515,1.53476 0.64315,2.237914 0.76044,0.557977 1.48102,0.61669 2.00736,0.16356 z"
         id="path491" /><path
         style="fill:#000000;fill-opacity:1"
         d="m 74.427781,98.359218 c 0.428448,-0.162896 0.74492,-0.880669 0.646927,-1.467263 -0.154096,-0.922436 -0.207056,-1.04625 -0.663739,-1.551744 -0.405506,-0.448846 -0.546515,-0.521048 -1.017603,-0.521048 -0.716182,0 -1.637979,0.474671 -2.01056,1.03532 -0.58772,0.884386 -0.282365,2.33235 0.552364,2.619249 0.446827,0.153576 1.971744,0.08352 2.492611,-0.114514 z"
         id="path490" /><path
         style="fill:#000000;fill-opacity:1"
         d="m 185.07859,99.790259 c 0.79794,-0.773391 0.76423,-1.619103 -0.10199,-2.55884 l -0.54133,-0.587277 -0.99082,0.0379 -0.99081,0.0379 -0.29649,0.524353 c -0.56362,0.996785 -0.22628,2.633224 0.61682,2.992165 0.10815,0.046 0.57069,0.0616 1.02788,0.0346 0.72954,-0.043 0.88576,-0.10189 1.27674,-0.480852 z"
         id="path489" /><path
         style="fill:#000000;fill-opacity:1"
         d="m 63.483683,100.58899 c 0.581754,-0.16187 1.364826,-0.803435 1.630382,-1.335755 0.112669,-0.22585 0.204853,-0.691996 0.204853,-1.03588 0,-0.75278 -0.367691,-1.262313 -1.172951,-1.625435 -0.473871,-0.213686 -0.593752,-0.221036 -1.065531,-0.06533 -0.713747,0.235558 -1.639304,1.071878 -1.83182,1.655207 -0.19415,0.588279 -0.01158,1.290148 0.490948,1.887363 0.525709,0.62477 0.931893,0.74583 1.744119,0.51983 z"
         id="path488" /><path
         style="fill:#000000;fill-opacity:1"
         d="m 149.57587,100.77887 c 0.67456,-0.68996 0.71206,-1.078517 0.1837,-1.903099 -0.57198,-0.892656 -0.8329,-1.070316 -1.58867,-1.081717 -0.60011,-0.0091 -0.71257,0.03857 -1.18846,0.503269 -0.63794,0.622926 -0.87275,1.339068 -0.66569,2.030197 0.26745,0.89267 0.90766,1.20903 2.17765,1.07609 0.40764,-0.0427 0.64836,-0.18172 1.08147,-0.62474 z"
         id="path487" /><path
         style="fill:#000000;fill-opacity:1"
         d="m 179.80625,105.5027 c 0.24239,-0.11502 0.50788,-0.35654 0.58997,-0.5367 0.23219,-0.50962 0.17659,-1.35578 -0.13082,-1.99081 -0.4854,-1.0027 -1.44486,-1.34338 -2.30549,-0.81863 -1.03836,0.63311 -1.12125,2.76486 -0.13527,3.47898 0.35251,0.25532 1.29705,0.19201 1.98161,-0.13284 z"
         id="path486" /><path
         style="fill:#000000;fill-opacity:1"
         d="m 126.55241,105.87832 c 0.71944,-0.48767 1.03616,-0.88074 1.1185,-1.38812 0.16746,-1.03191 -1.02799,-2.32038 -2.15888,-2.32687 -0.98071,-0.006 -2.18014,1.02468 -2.34005,2.0101 -0.13439,0.82816 0.66921,1.9254 1.5299,2.08895 0.57707,0.10965 1.36272,-0.0534 1.85053,-0.38406 z"
         id="path485" /><path
         style="fill:#000000;fill-opacity:1"
         d="m 153.4343,106.22425 c 0.58124,-0.60302 0.63135,-0.70652 0.63135,-1.30421 0,-0.58182 -0.0442,-0.68119 -0.42604,-0.95739 -1.30752,-0.94585 -2.54935,-0.79147 -3.16189,0.39306 -0.28228,0.54587 -0.26953,0.98246 0.0468,1.60249 0.36419,0.71388 0.71566,0.92106 1.56254,0.92106 0.68741,0 0.74105,-0.0261 1.34725,-0.65501 z"
         id="path484" /><path
         style="fill:#000000;fill-opacity:1"
         d="m 68.409372,107.58677 c 0.243522,-0.11556 0.650618,-0.44017 0.904657,-0.72136 0.410899,-0.45482 0.461889,-0.59112 0.461889,-1.23468 0,-1.13595 -0.580601,-1.85106 -1.80195,-2.2194 -0.46239,-0.13945 -1.908297,0.38314 -2.320591,0.83872 -0.346947,0.38337 -0.419671,1.42686 -0.14045,2.01527 0.595177,1.25424 1.840641,1.82246 2.896445,1.32145 z"
         id="path483" /><path
         style="fill:#000000;fill-opacity:1"
         d="m 59.120876,107.67747 c 0.815387,-0.59067 1.085601,-1.05365 1.085601,-1.86008 0,-0.53254 -0.07873,-0.80731 -0.338861,-1.18269 -0.943228,-1.36107 -2.698579,-1.04773 -3.538994,0.63174 -0.451584,0.90244 -0.33102,1.53808 0.461315,2.43214 0.277575,0.31322 0.416829,0.3605 1.061809,0.3605 0.611745,0 0.835009,-0.0671 1.26913,-0.38161 z"
         id="path482" /><path
         style="fill:#000000;fill-opacity:1"
         d="m 173.06173,109.52756 c 0.24591,-0.12271 0.61665,-0.43411 0.82386,-0.692 0.77627,-0.96609 0.57627,-2.05671 -0.50264,-2.74092 -0.93479,-0.59283 -1.44735,-0.54662 -2.12805,0.19186 -0.49904,0.54139 -0.54105,0.64367 -0.54105,1.31739 0,1.66441 1.08537,2.55368 2.34788,1.92367 z"
         id="path481" /><path
         style="fill:#000000;fill-opacity:1"
         d="m 158.82621,110.27189 c 0.44019,-0.22571 1.14993,-0.93184 1.2851,-1.27856 0.20733,-0.53182 -0.011,-1.18698 -0.60064,-1.80236 -0.48348,-0.50459 -0.61826,-0.57383 -1.11704,-0.57383 -0.72717,0 -1.26167,0.39692 -1.75492,1.30318 -0.41802,0.76804 -0.37416,1.04617 0.28181,1.78716 0.62119,0.70169 1.26569,0.89257 1.90569,0.56441 z"
         id="path480" /><path
         style="fill:#000000;fill-opacity:1"
         d="m 166.54352,110.58256 c 1.26695,-1.32239 1.16843,-2.40437 -0.30046,-3.29987 -0.60834,-0.37087 -1.13711,-0.34118 -1.83781,0.10318 -0.86108,0.54609 -1.16343,0.98644 -1.16343,1.69448 0,1.08934 0.98275,1.99243 2.16913,1.9933 0.59369,4.4e-4 0.70995,-0.05 1.13257,-0.49109 z"
         id="path479" /><path
         style="fill:#000000;fill-opacity:1"
         d="m 128.34492,113.79326 c 1.12335,-1.04798 1.05656,-2.77971 -0.13523,-3.50635 -0.63675,-0.38824 -1.26882,-0.33662 -2.01539,0.16457 -0.77915,0.52306 -1.22516,1.26834 -1.22808,2.05216 -0.002,0.5038 0.0643,0.6406 0.51871,1.07291 0.55615,0.52906 0.97918,0.65035 1.96239,0.56265 0.36788,-0.0328 0.69857,-0.16027 0.8976,-0.34594 z"
         id="path478" /><path
         style="fill:#000000;fill-opacity:1"
         d="m 54.391509,115.48708 c 0.899654,-0.61768 1.22688,-1.14785 1.22688,-1.9878 0,-1.12922 -0.687937,-1.89546 -1.704147,-1.89812 -1.029284,-0.003 -1.811351,0.43939 -2.35512,1.33128 -0.476498,0.78156 -0.26015,1.96728 0.485027,2.65825 0.555534,0.51512 1.507357,0.47311 2.34736,-0.10361 z"
         id="path477" /><path
         style="fill:#000000;fill-opacity:1"
         d="m 63.809519,115.95244 c 0.691473,-0.52371 1.241476,-1.3352 1.245066,-1.837 0.0022,-0.31362 -0.317438,-1.02341 -0.571967,-1.26995 -0.823083,-0.79723 -1.748859,-1.16036 -2.375362,-0.93171 -1.089884,0.39777 -2.163662,1.52548 -2.162284,2.2709 0.0013,0.72383 0.76059,1.63208 1.710121,2.04572 0.814396,0.35477 1.422624,0.2763 2.154426,-0.27796 z"
         id="path476" /><path
         style="fill:#000000;fill-opacity:1"
         d="m 130.79792,121.35224 c 0.58113,-0.38078 1.11382,-1.34342 1.11382,-2.01284 0,-1.4292 -1.51802,-2.38467 -2.81263,-1.77034 -0.82576,0.39185 -1.14109,0.86348 -1.21801,1.82177 l -0.0695,0.86613 0.53818,0.49684 c 0.78249,0.72239 1.85782,0.98525 2.44817,0.59844 z"
         id="path475" /><path
         style="fill:#000000;fill-opacity:1"
         d="m 125.36741,123.79979 c 0.63046,-0.63046 0.41846,-1.65879 -0.53946,-2.6167 -0.40277,-0.40277 -1.03822,-0.54474 -1.379,-0.30809 -0.62601,0.43472 -0.78753,1.70082 -0.29661,2.32492 0.24287,0.30876 1.37837,0.95145 1.72349,0.9755 0.0596,0.004 0.28083,-0.16488 0.49158,-0.37563 z"
         id="path474" /><path
         style="fill:#000000;fill-opacity:1"
         d="m 49.787928,123.91936 c 1.314806,-0.63649 1.793903,-2.24361 0.973263,-3.26479 -0.779142,-0.96954 -2.033135,-0.97684 -2.9212,-0.017 -0.542688,0.58654 -0.884088,1.71527 -0.637995,2.10932 0.08681,0.13901 0.157835,0.33578 0.157835,0.43728 0,0.10151 0.171141,0.36776 0.380314,0.59168 0.310955,0.33288 0.482711,0.40713 0.941774,0.40713 0.308803,0 0.806507,-0.11863 1.106009,-0.26361 z"
         id="path473" /><path
         style="fill:#000000;fill-opacity:1"
         d="m 59.804726,123.97826 c 0.907197,-0.49376 1.115746,-0.95631 1.070474,-2.37427 -0.027,-0.84559 -1.204674,-1.75027 -2.269331,-1.74328 -0.725131,0.005 -1.658461,0.48183 -2.03709,1.04126 -0.719318,1.0628 -0.03033,2.69848 1.349475,3.20371 0.759586,0.27813 1.195443,0.24869 1.886472,-0.12742 z"
         id="path472" /><path
         style="fill:#000000;fill-opacity:1"
         d="m 134.2223,129.18484 c 0.5162,-0.43137 0.7377,-1.04547 0.67746,-1.87827 -0.0474,-0.6549 -0.12002,-0.83356 -0.49719,-1.2227 -0.55522,-0.57285 -1.40727,-0.91254 -2.00679,-0.80007 -0.5873,0.11017 -1.35068,0.88034 -1.46229,1.47527 -0.17984,0.95861 0.18165,1.71398 1.09849,2.29542 0.70908,0.44969 1.73511,0.51075 2.19032,0.13035 z"
         id="path471" /><path
         style="fill:#000000;fill-opacity:1"
         d="m 56.101436,132.04018 c 0.813117,-0.30655 1.615016,-1.40152 1.613875,-2.20369 -0.0015,-1.05517 -1.346063,-2.10723 -2.699451,-2.11221 -0.722506,-0.003 -1.263975,0.2909 -1.845419,1.00048 -0.451451,0.55093 -0.484151,0.6499 -0.476692,1.4428 0.0074,0.78313 0.04343,0.88831 0.450391,1.31356 0.24331,0.25425 0.560361,0.51161 0.704558,0.57192 0.37861,0.15835 1.820456,0.15012 2.252738,-0.0129 z"
         id="path470" /><path
         style="fill:#000000;fill-opacity:1"
         d="m 45.905098,131.93858 c 1.215806,-0.73556 1.689573,-1.76968 1.248084,-2.72425 -0.571941,-1.23664 -1.484676,-1.54229 -2.553311,-0.85505 -0.922777,0.59344 -1.434863,1.30442 -1.434863,1.99217 0,0.5011 0.662598,1.49417 1.225234,1.83633 0.468632,0.28499 0.692864,0.24811 1.514856,-0.2492 z"
         id="path469" /><path
         style="fill:#000000;fill-opacity:1"
         d="m 127.24728,132.39868 c 0.8575,-0.85749 0.77444,-1.85604 -0.23528,-2.82843 -0.84829,-0.81693 -2.05942,-0.56571 -2.61042,0.54149 -0.32335,0.64974 -0.19359,1.03516 0.63382,1.88264 0.64102,0.65657 0.73761,0.70928 1.29969,0.70928 0.46083,0 0.68073,-0.0735 0.91219,-0.30498 z"
         id="path468" /><path
         style="fill:#000000;fill-opacity:1"
         d="m 137.44511,137.45561 c 1.1068,-1.17734 1.28286,-1.98469 0.62723,-2.87621 -0.93275,-1.26834 -2.66922,-1.27906 -3.50136,-0.0216 -0.28008,0.42323 -0.32318,0.61329 -0.27388,1.20773 0.0686,0.82764 0.37567,1.31092 1.10193,1.73447 0.75467,0.44011 1.60802,0.4216 2.04608,-0.0444 z"
         id="path467" /><path
         style="fill:#000000;fill-opacity:1"
         d="m 42.512819,139.89594 c 1.110076,-0.6239 1.488736,-1.98289 0.854194,-3.06566 -0.64749,-1.10485 -1.352426,-1.24964 -2.361873,-0.48509 -1.223433,0.92662 -1.507772,1.73929 -0.999839,2.85764 0.360895,0.79462 0.871291,1.14704 1.512663,1.04448 0.284169,-0.0454 0.731854,-0.20356 0.994855,-0.35137 z"
         id="path466" /><path
         style="fill:#000000;fill-opacity:1"
         d="m 140.31361,145.67269 c 0.47034,-0.33491 1.07768,-1.20816 1.28692,-1.85037 0.13686,-0.42004 0.12296,-0.54989 -0.10717,-1.00099 -0.37221,-0.72959 -1.21306,-1.36548 -1.82687,-1.38157 -1.03201,-0.0271 -2.38014,1.31019 -2.38014,2.36094 0,0.52749 0.56784,1.30656 1.28276,1.75995 0.71207,0.45158 1.2217,0.48431 1.7445,0.11204 z"
         id="path465" /><path
         style="fill:#000000;fill-opacity:1"
         d="m 40.461219,147.47849 c 0.207231,-0.1458 0.518038,-0.58449 0.690682,-0.97487 0.283063,-0.64005 0.298041,-0.7627 0.152466,-1.24859 -0.236672,-0.78994 -0.996885,-1.54008 -1.560128,-1.53946 -0.712944,7.8e-4 -2.084937,0.96039 -2.084937,1.45827 0,0.12645 -0.05899,0.26637 -0.131088,0.31093 -0.187336,0.11578 -0.161819,0.78837 0.04865,1.28232 0.20665,0.48499 0.684687,0.95619 1.0656,1.05037 0.462909,0.11445 1.430624,-0.0659 1.818755,-0.33897 z"
         id="path464" /><path
         style="fill:#000000;fill-opacity:1"
         d="m 143.22814,154.67889 c 0.5374,-0.22454 1.43772,-1.23512 1.61286,-1.81038 0.20117,-0.66073 -0.0147,-1.23151 -0.73301,-1.93861 -1.18201,-1.16349 -2.4516,-1.02708 -3.24051,0.34818 -0.43982,0.7667 -0.35811,2.11751 0.16489,2.72617 0.71563,0.83283 1.3504,1.02786 2.19577,0.67464 z"
         id="path463" /><path
         style="fill:#000000;fill-opacity:1"
         d="m 38.257863,155.18715 c 1.044145,-0.61191 1.477586,-2.28141 0.774774,-2.98422 -0.324329,-0.32433 -1.18601,-0.62256 -1.798778,-0.62256 -0.369383,0 -1.297493,0.87501 -1.596532,1.50518 -0.384388,0.81004 -0.200447,1.69871 0.441093,2.13105 0.605696,0.40817 1.45221,0.39674 2.179443,-0.0294 z"
         id="path462" /><path
         style="fill:#000000;fill-opacity:1"
         d="m 146.10672,163.43754 c 0.75568,-0.5135 1.14234,-1.22253 1.14234,-2.09473 0,-0.69649 -0.0286,-0.75845 -0.6263,-1.35613 -1.14503,-1.14504 -2.34418,-1.14313 -3.17591,0.005 -0.27305,0.37693 -0.39261,0.69454 -0.39261,1.04293 0,0.66467 0.5094,1.78217 1.05339,2.31089 0.56672,0.55081 1.27587,0.58344 1.99909,0.092 z"
         id="path461" /><path
         style="fill:#000000;fill-opacity:1"
         d="m 36.769807,164.93135 c 0.217974,-0.15522 0.566271,-0.5502 0.773994,-0.87774 0.527809,-0.83227 0.537122,-1.94998 0.02286,-2.74309 -0.444839,-0.68605 -0.918547,-0.87295 -1.609321,-0.63496 -0.548394,0.18894 -1.18579,0.65456 -1.443615,1.05457 -0.09135,0.14172 -0.159153,0.64126 -0.154478,1.13812 0.0067,0.71368 0.07305,0.98806 0.341822,1.41381 0.57457,0.91018 1.357332,1.15585 2.068742,0.64929 z"
         id="path460" /><path
         style="fill:#000000;fill-opacity:1"
         d="m 146.75533,172.82994 c 0.53413,-0.20307 1.25119,-1.0379 1.47799,-1.72072 0.27756,-0.83567 0.11864,-1.37187 -0.59869,-2.01992 -0.47292,-0.42727 -0.58555,-0.46746 -1.30981,-0.46746 -0.77148,0 -0.80897,0.0166 -1.42046,0.62807 -0.46638,0.46638 -0.64908,0.76167 -0.70971,1.14702 -0.0906,0.57592 0.0358,1.2901 0.30459,1.72043 0.40542,0.64919 1.50738,0.99724 2.25609,0.71258 z"
         id="path459" /><path
         style="fill:#000000;fill-opacity:1"
         d="m 36.662287,173.24823 c 0.611464,-0.57945 1.01961,-1.42842 0.903897,-1.88016 -0.216844,-0.84654 -1.256663,-1.82861 -1.936132,-1.82861 -0.555089,0 -1.950143,1.25692 -2.112346,1.90318 -0.261277,1.04101 0.890902,2.29313 2.107684,2.2905 0.426327,-9.2e-4 0.623446,-0.0931 1.036897,-0.48491 z"
         id="path458" /><path
         style="fill:#000000;fill-opacity:1"
         d="m 112.95463,180.98084 c 0.0519,-0.0519 0.22396,-0.0961 0.38234,-0.0983 0.1925,-0.003 0.28192,-0.08 0.26975,-0.23334 -0.01,-0.12618 0.0342,-0.22941 0.0983,-0.22941 0.0641,0 0.11652,0.0885 0.11652,0.19663 0,0.30596 0.44579,0.23161 0.78662,-0.13118 0.19167,-0.20402 0.31168,-0.49635 0.3178,-0.77409 0.01,-0.44522 0.0106,-0.44579 0.35386,-0.24354 0.31652,0.18652 0.37148,0.1829 0.68731,-0.0452 0.18881,-0.13637 0.39325,-0.42492 0.45431,-0.64121 0.0841,-0.298 0.17961,-0.3857 0.39416,-0.36204 0.15664,0.0173 0.28315,-0.0425 0.28315,-0.13368 0,-0.14706 0.42416,-0.99455 0.88945,-1.77714 0.10359,-0.17422 0.11621,-0.28336 0.0328,-0.28336 -0.0746,0 -0.1357,0.059 -0.1357,0.13109 0,0.0721 -0.0616,0.13108 -0.13681,0.13108 -0.0752,0 -0.29586,0.14748 -0.49024,0.32773 -0.19439,0.18024 -0.40096,0.32772 -0.45905,0.32772 -0.0581,0 -0.23898,0.13272 -0.40198,0.29494 -0.16301,0.16223 -0.51386,0.44243 -0.77968,0.62267 -0.26582,0.18025 -0.48371,0.36899 -0.4842,0.41942 -4.9e-4,0.0504 -0.37682,0.35995 -0.83629,0.68781 -0.77038,0.54974 -1.78481,1.57756 -1.78591,1.80949 -5.9e-4,0.1254 0.31918,0.12824 0.44349,0.004 z"
         id="path457" /><path
         style="fill:#000000;fill-opacity:1"
         d="m 126.59682,181.69789 c 0.55667,-0.48794 0.8969,-1.66614 0.96043,-3.32593 0.0645,-1.68595 -0.008,-1.89526 -0.79009,-2.29448 -0.79362,-0.40488 -2.22044,-0.29194 -3.00987,0.23825 -0.77478,0.52035 -1.15282,1.12438 -1.15282,1.84199 0,0.80686 0.36201,1.97455 0.7716,2.48887 0.97088,1.21914 2.47073,1.70871 3.22075,1.0513 z"
         id="path456" /><path
         style="fill:#000000;fill-opacity:1"
         d="m 147.09173,181.82801 c 0.46646,-0.4335 1.0723,-1.54978 1.07372,-1.97831 0.002,-0.49522 -0.31713,-1.14433 -0.77943,-1.58725 -0.32461,-0.31099 -0.48236,-0.35956 -1.16788,-0.35956 -0.92425,0 -1.41463,0.27663 -1.92582,1.0864 -0.68763,1.08929 -0.1723,2.5494 1.11709,3.16509 0.36315,0.17341 1.35071,-0.0182 1.68232,-0.32637 z"
         id="path455" /><path
         style="fill:#000000;fill-opacity:1"
         d="m 37.614668,182.91335 c 0.771806,-0.44266 1.224428,-0.99936 1.224428,-1.50599 0,-0.50949 -0.58005,-1.65136 -1.076592,-2.11934 -0.857242,-0.80793 -1.710105,-0.76758 -2.375893,0.11242 -0.822425,1.08704 -0.722739,2.35672 0.262377,3.34184 0.681714,0.68171 1.02348,0.71146 1.96568,0.17107 z"
         id="path454" /><path
         style="fill:#000000;fill-opacity:1"
         d="m 119.15054,188.59891 c 0.26866,-0.21745 0.66811,-0.6173 0.88766,-0.88857 0.34628,-0.42783 0.40552,-0.61841 0.44689,-1.43775 0.10924,-2.16328 -0.67521,-3.12344 -2.70605,-3.31219 -0.79525,-0.0739 -0.98793,-0.0456 -1.52871,0.22446 -0.34494,0.17227 -0.90325,0.6374 -1.26159,1.05105 -0.63042,0.7277 -0.77268,1.0695 -0.51216,1.23051 0.0719,0.0444 0.27046,0.38709 0.44132,0.76149 0.17086,0.37441 0.43176,0.94619 0.57978,1.27064 0.51377,1.12612 1.2314,1.59575 2.34997,1.53786 0.67491,-0.0349 0.8981,-0.10988 1.30289,-0.4375 z"
         id="path453" /><path
         style="fill:#000000;fill-opacity:1"
         d="m 145.31885,190.90683 c 0.51694,-0.305 1.14929,-1.062 1.39616,-1.67136 0.13635,-0.33659 0.13973,-0.50538 0.0161,-0.80391 -0.27786,-0.67081 -1.61686,-1.71954 -2.19548,-1.71954 -0.39568,0 -1.64762,0.8644 -1.92787,1.33111 -0.44854,0.74696 -0.14842,1.62263 0.86994,2.53823 0.74258,0.66764 1.14168,0.73819 1.84118,0.32547 z"
         id="path452" /><path
         style="fill:#000000;fill-opacity:1"
         d="m 40.009625,191.76371 c 0.603094,-0.31188 0.926883,-1.00307 0.926883,-1.97861 0,-0.81056 -0.02112,-0.8657 -0.524353,-1.36894 -0.490735,-0.49073 -0.57291,-0.52435 -1.281714,-0.52435 -0.953138,0 -1.493594,0.32066 -1.83316,1.08765 -0.229824,0.5191 -0.20239,0.9274 0.106462,1.58446 0.350762,0.74621 0.734872,1.0938 1.374151,1.24351 0.739252,0.17312 0.817784,0.17034 1.231731,-0.0437 z"
         id="path451" /><path
         style="fill:#000000;fill-opacity:1"
         d="m 142.89689,199.11154 c 0.91215,-0.47654 1.54508,-1.59397 1.39753,-2.46734 -0.11374,-0.67325 -0.88567,-1.47146 -1.5421,-1.59461 -1.22653,-0.2301 -2.5881,0.81129 -2.57915,1.97265 0.003,0.40447 0.41017,1.39758 0.68132,1.66227 0.64003,0.62478 1.37123,0.77766 2.0424,0.42703 z"
         id="path450" /><path
         style="fill:#000000;fill-opacity:1"
         d="m 43.400922,199.89807 c 0.846203,-0.44208 1.413553,-1.38512 1.262861,-2.09912 -0.173663,-0.82283 -1.28617,-1.52951 -2.446876,-1.55427 -0.659161,-0.0141 -1.003312,0.20409 -1.570139,0.99532 -0.241021,0.33644 -0.249337,0.42143 -0.09513,0.97218 0.392136,1.40058 1.800425,2.23384 2.849289,1.68589 z"
         id="path449" /><path
         style="fill:#000000;fill-opacity:1"
         d="m 139.73834,205.96537 c 0.78114,-0.48277 0.91693,-1.45115 0.36016,-2.56845 -0.42701,-0.85688 -0.8417,-1.13808 -1.54022,-1.04439 -1.08612,0.14568 -2.00391,1.70608 -1.58686,2.69794 0.46262,1.10027 1.76839,1.53203 2.76692,0.9149 z"
         id="path447" /><path
         style="fill:#000000;fill-opacity:1"
         d="m 84.392255,207.75166 c 0,-0.13218 -0.07374,-0.26491 -0.163861,-0.29495 -0.103778,-0.0346 -0.16386,0.0736 -0.16386,0.29495 0,0.22139 0.06008,0.32954 0.16386,0.29495 0.09012,-0.03 0.163861,-0.16277 0.163861,-0.29495 z"
         id="path446" /><path
         style="fill:#000000;fill-opacity:1"
         d="m 48.551925,207.60879 c 0.206971,-0.19829 0.474622,-0.61796 0.594781,-0.93259 0.187344,-0.49055 0.194449,-0.64484 0.04987,-1.08293 -0.254184,-0.77018 -0.994917,-1.42601 -1.723415,-1.52586 -0.903201,-0.12379 -1.506295,0.21059 -1.898339,1.05253 -0.170412,0.36597 -0.310416,0.76142 -0.31112,0.87879 -0.0041,0.69118 0.848572,1.74175 1.603614,1.9757 0.554689,0.17187 1.290202,0.0122 1.684611,-0.36564 z"
         id="path445" /><path
         style="fill:#000000;fill-opacity:1"
         d="m 136.47865,210.48876 c 0.43996,-0.53375 0.59831,-1.14267 0.47209,-1.81544 -0.0888,-0.47317 -0.59354,-1.08108 -1.0336,-1.24478 -0.42106,-0.15663 -1.25509,0.13776 -1.72687,0.60955 -0.41714,0.41713 -0.4433,0.49614 -0.4433,1.33867 0,0.79263 0.0397,0.93503 0.3456,1.24097 0.30015,0.30015 0.45403,0.34559 1.17025,0.34559 0.78825,0 0.84192,-0.0209 1.21583,-0.47456 z"
         id="path444" /><path
         style="fill:#000000;fill-opacity:1"
         d="m 54.180707,214.2733 c 0.52463,-0.37452 0.782241,-0.77726 0.782241,-1.22295 0,-0.40783 -0.373531,-1.19983 -0.752465,-1.59545 -0.303356,-0.31671 -0.443145,-0.36049 -1.150999,-0.36049 -0.72059,0 -0.857798,0.045 -1.298788,0.42623 -0.404884,0.35 -0.505472,0.53618 -0.562362,1.04091 -0.100793,0.89423 0.0286,1.22489 0.65211,1.66653 0.761777,0.53957 1.614578,0.55612 2.330263,0.0452 z"
         id="path443" /><path
         style="fill:#000000;fill-opacity:1"
         d="m 132.05734,215.54107 c 0.68439,-0.48732 1.00388,-1.48815 0.76192,-2.38673 -0.078,-0.28948 -0.21834,-0.60295 -0.31199,-0.69659 -0.25055,-0.25055 -1.37466,-0.36203 -1.98724,-0.19708 -0.82855,0.22311 -1.03352,0.53876 -1.03291,1.59071 4.5e-4,0.77021 0.0457,0.94239 0.32772,1.24793 0.66344,0.71867 1.5957,0.90232 2.2425,0.44176 z"
         id="path442" /><path
         style="fill:#000000;fill-opacity:1"
         d="m 127.26563,220.03827 c 0.57918,-0.48638 0.76492,-1.69879 0.39565,-2.58257 -0.23819,-0.57009 -1.0205,-0.98667 -1.85287,-0.98667 -0.50873,0 -0.66905,0.0653 -0.9813,0.39953 -0.4123,0.44138 -0.60059,1.26073 -0.47467,2.06563 0.0531,0.33919 0.22152,0.61199 0.56216,0.91036 0.43586,0.38176 0.56928,0.42573 1.28387,0.42312 0.5608,-0.002 0.8775,-0.0701 1.06716,-0.2294 z"
         id="path441" /><path
         style="fill:#000000;fill-opacity:1"
         d="m 59.847059,220.07877 c 0.715041,-0.29876 1.145947,-0.89744 1.145947,-1.59212 0,-1.68945 -1.26906,-2.47722 -2.840949,-1.76353 -0.74747,0.33937 -1.004305,0.77365 -1.004305,1.69815 0,0.82264 0.288875,1.4735 0.75422,1.6993 0.407232,0.1976 1.424435,0.17574 1.945087,-0.0418 z"
         id="path440" /><path
         style="fill:#000000;fill-opacity:1"
         d="m 138.25417,57.643742 c -0.22473,-0.110326 -0.47811,-0.353126 -0.56305,-0.539556 -0.1326,-0.291013 -0.10458,-0.437513 0.19802,-1.035602 0.4594,-0.90798 0.82546,-1.236857 1.47344,-1.323769 0.8184,-0.109772 1.35208,0.05133 1.90443,0.574905 l 0.50682,0.480413 -0.63791,0.556788 c -0.67332,0.587702 -1.77079,1.289307 -2.21096,1.413464 -0.1442,0.04067 -0.44605,-0.01632 -0.67079,-0.126643 z"
         id="path439" /><path
         style="fill:#000000;fill-opacity:1"
         d="m 131.24087,61.226592 c -0.7352,-0.56076 -1.21312,-1.473602 -1.09663,-2.094593 0.11107,-0.592049 1.04522,-1.6598 1.92655,-2.20209 0.75389,-0.463871 1.74167,-0.583847 2.133,-0.259073 0.24768,0.205551 0.53925,0.737123 0.78251,1.426583 0.14996,0.425032 0.13794,0.542483 -0.10939,1.068709 -0.70545,1.500961 -1.76512,2.487711 -2.67155,2.487711 -0.25443,0 -0.612,-0.158395 -0.96449,-0.427247 z"
         id="path438" /><path
         style="fill:#000000;fill-opacity:1"
         d="m 124.61108,65.995512 c -1.09019,-0.704622 -1.74443,-1.742535 -1.74443,-2.767417 0,-0.620389 0.0599,-0.800723 0.40561,-1.220067 0.92214,-1.118717 2.35186,-1.153757 3.75428,-0.09201 1.00825,0.763332 1.56149,2.292051 1.21234,3.349989 -0.2345,0.710546 -1.12947,1.238099 -2.10037,1.238099 -0.63753,0 -0.84999,-0.07074 -1.52743,-0.508592 z"
         id="path437" /><path
         style="fill:#000000;fill-opacity:1"
         d="m 118.73737,72.552619 c -0.57679,-0.193022 -1.2792,-0.464236 -1.56092,-0.602696 -0.67402,-0.331269 -2.02049,-1.690737 -2.12068,-2.141146 -0.0435,-0.195353 -0.16598,-0.549544 -0.27228,-0.787091 -0.47649,-1.064829 -0.15615,-1.698812 1.2036,-2.382024 1.487,-0.747152 2.91036,-0.682643 4.65106,0.210794 1.09647,0.562778 1.30222,0.898136 1.56295,2.54753 0.1066,0.674337 0.0709,0.836661 -0.49422,2.250008 -0.079,0.197542 -0.35683,0.566228 -0.61743,0.819301 -0.57859,0.561892 -0.89383,0.573327 -2.35208,0.08532 z"
         id="path436" /><path
         style="fill:#000000;fill-opacity:1"
         d="m 108.73421,73.892766 c -0.27012,-0.117612 -0.96979,-1.75721 -0.88834,-2.081733 0.0704,-0.280642 1.66608,-2.029723 1.85167,-2.029723 0.54401,0 1.76443,1.429478 1.76443,2.066684 0,1.041146 -1.84917,2.427313 -2.72776,2.044772 z"
         id="path435" /><path
         style="fill:#000000;fill-opacity:1"
         d="m 104.3796,77.036603 c -0.17826,-0.119205 -0.48633,-0.3662 -0.6846,-0.548878 -0.73892,-0.680802 -0.33982,-1.852794 0.99203,-2.913232 0.74558,-0.593638 1.15975,-0.736183 1.64408,-0.56585 0.41446,0.145756 0.93604,0.889521 0.93604,1.334771 0,0.480994 -0.82745,1.880342 -1.43807,2.432001 -0.58018,0.524156 -0.95517,0.591728 -1.44948,0.261188 z"
         id="path434" /><path
         style="fill:#000000;fill-opacity:1"
         d="m 115.65355,81.374085 c -0.0703,-0.18494 -0.12784,-0.538031 -0.12784,-0.784648 0,-0.246617 -0.0682,-0.70343 -0.15158,-1.015141 -0.19282,-0.720908 -0.093,-1.106353 0.423,-1.634176 0.53095,-0.543074 2.12157,-1.062134 2.4414,-0.796695 0.24881,0.206497 0.16893,1.421666 -0.15372,2.338414 -0.59344,1.68611 -2.07209,2.83694 -2.43126,1.892246 z"
         id="path433" /><path
         style="fill:#000000;fill-opacity:1"
         d="m 98.035031,82.345641 c -0.460764,-0.923625 -0.153632,-1.867697 0.974686,-2.996015 0.842118,-0.842118 1.554573,-0.856291 2.318663,-0.04613 0.48068,0.509675 0.53173,0.854391 0.27091,1.829546 -0.0964,0.360432 -0.3084,0.729325 -0.52283,0.909755 -0.42958,0.36147 -1.572718,0.716245 -2.307847,0.716245 -0.460663,0 -0.553427,-0.05228 -0.733582,-0.413404 z"
         id="path432" /><path
         style="fill:#000000;fill-opacity:1"
         d="m 94.905463,86.134568 c -0.06825,-0.737654 -0.04042,-0.874036 0.279324,-1.368532 0.195321,-0.302076 0.69863,-0.906842 1.118463,-1.343924 l 0.763333,-0.794694 0.367366,0.261588 c 0.344199,0.245091 0.359667,0.295851 0.245288,0.804918 -0.1555,0.692078 -0.68387,1.787703 -1.06638,2.211239 -0.317549,0.351607 -1.325199,1.048706 -1.515895,1.048706 -0.06363,0 -0.149805,-0.368686 -0.191499,-0.819301 z"
         id="path431" /><path
         style="fill:#000000;fill-opacity:1"
         d="m 92.388636,90.379616 c -1.273573,-0.789354 -1.469556,-1.528129 -0.602311,-2.270459 1.050132,-0.898873 1.793383,-0.928666 2.274049,-0.09115 0.277682,0.483831 0.291248,0.984831 0.04263,1.574392 -0.417574,0.990224 -0.974342,1.245885 -1.714371,0.787219 z"
         id="path430" /><path
         style="fill:#000000;fill-opacity:1"
         d="m 113.62493,91.483934 c -1.54066,-0.887425 -1.46297,-2.540302 0.16208,-3.448587 0.86348,-0.482619 2.63208,0.363304 2.82052,1.349051 0.15016,0.785528 -0.22088,1.415208 -1.2058,2.046307 -0.69522,0.445471 -1.07603,0.456879 -1.7768,0.05323 z"
         id="path429" /><path
         style="fill:#000000;fill-opacity:1"
         d="m 88.386841,95.913603 c -0.178264,-0.119044 -0.517601,-0.397784 -0.754084,-0.619423 -0.497961,-0.466705 -0.487446,-0.809709 0.05367,-1.750716 0.360523,-0.626955 0.645828,-0.821713 1.203747,-0.821713 0.813289,0 1.99095,0.823966 1.99095,1.392995 0,0.306797 -0.368903,0.938873 -0.874743,1.498777 -0.524975,0.581085 -1.052401,0.67881 -1.619538,0.30008 z"
         id="path428" /><path
         style="fill:#000000;fill-opacity:1"
         d="m 112.75448,99.571152 c -0.63047,-0.666719 -1.02519,-1.261906 -1.16867,-1.762202 -0.0986,-0.343646 -0.0627,-0.514769 0.20257,-0.967458 0.41311,-0.704925 1.58372,-1.760112 1.95265,-1.760112 0.49815,0 1.64487,1.005304 1.92495,1.68755 0.43141,1.050924 -1.06976,3.2938 -2.20457,3.2938 -0.13314,0 -0.45126,-0.221209 -0.70693,-0.491578 z"
         id="path427" /><path
         style="fill:#000000;fill-opacity:1"
         d="m 85.906808,101.36001 c -0.55096,-0.22004 -1.443877,-1.03549 -1.714301,-1.565561 -0.546854,-1.071922 -0.140552,-2.082032 1.139119,-2.831969 0.528233,-0.309565 0.636438,-0.329079 1.082944,-0.195303 0.664731,0.199158 1.659179,1.094553 1.846704,1.66276 0.223032,0.675795 0.05102,1.39267 -0.4842,2.017953 -0.368879,0.43096 -1.319684,1.09047 -1.51159,1.0485 -0.0209,-0.005 -0.182301,-0.0659 -0.358676,-0.13638 z"
         id="path426" /><path
         style="fill:#000000;fill-opacity:1"
         d="m 111.93541,107.25414 c -0.6291,-0.73495 -0.94808,-1.69711 -0.734,-2.21395 0.28308,-0.68342 1.21283,-1.46957 1.92228,-1.62539 0.64171,-0.14094 1.47805,0.15012 2.03677,0.70884 0.42614,0.42614 0.49634,0.5791 0.49634,1.08152 0,0.72745 -0.23698,1.21458 -0.87826,1.8054 -0.71089,0.65493 -1.00032,0.78638 -1.73151,0.78638 -0.59631,0 -0.68342,-0.0425 -1.11162,-0.5428 z"
         id="path425" /><path
         style="fill:#000000;fill-opacity:1"
         d="m 81.708056,107.31034 c -0.746837,-0.63926 -1.313992,-1.54592 -1.313992,-2.10055 0,-0.50409 0.393118,-1.34415 0.81136,-1.7338 0.234817,-0.21877 0.461946,-0.26718 1.253477,-0.26718 1.162038,0 2.218075,0.44469 2.767902,1.16555 0.47192,0.61872 0.48919,1.71321 0.03704,2.34715 -0.421834,0.59143 -1.463428,1.07539 -2.314493,1.07539 -0.586797,0 -0.745559,-0.0622 -1.24129,-0.48656 z"
         id="path424" /><path
         style="fill:#000000;fill-opacity:1"
         d="m 105.36637,89.37489 c 0.29872,-0.04669 0.67948,-0.229112 0.88485,-0.423938 0.29913,-0.283775 0.36049,-0.452997 0.36049,-0.994153 0,-0.858962 -0.37161,-2.027096 -0.67556,-2.123565 -0.32859,-0.10429 -1.12975,0.303876 -1.67968,0.855739 -1.09011,1.093938 -1.35969,2.401172 -0.5602,2.716407 0.35229,0.138905 0.6172,0.134069 1.6701,-0.03049 z"
         id="path423" /><path
         style="fill:#000000;fill-opacity:1"
         d="m 102.27403,98.868571 c 1.0887,-0.170695 1.52255,-0.404966 1.7017,-0.918868 0.21633,-0.620555 0.17768,-1.198358 -0.13671,-2.044144 -0.47046,-1.265612 -1.36594,-1.872925 -2.76161,-1.872925 -1.617268,0 -2.807017,2.023581 -2.271932,3.864207 0.361868,1.244783 0.851723,1.382018 3.468552,0.97173 z"
         id="path422" /><path
         style="fill:#000000;fill-opacity:1"
         d="m 78.689917,113.83955 c -1.167162,-0.37089 -2.152347,-1.20416 -2.28977,-1.93669 -0.106176,-0.56597 0.02145,-1.20793 0.305264,-1.53548 0.546817,-0.63108 2.044452,-0.93214 2.863183,-0.57555 1.511741,0.6584 1.98323,1.42981 1.579227,2.58377 -0.388022,1.10832 -1.497511,1.76914 -2.457904,1.46395 z"
         id="path420" /><path
         style="fill:#000000;fill-opacity:1"
         d="m 112.61266,115.65515 c -0.26836,-0.1417 -0.72553,-0.50492 -1.01593,-0.80715 -0.48768,-0.50752 -0.52802,-0.60529 -0.52802,-1.27976 0,-0.62202 0.0598,-0.80277 0.40332,-1.21955 0.55016,-0.66744 1.46543,-1.27459 1.92145,-1.27459 0.4445,0 1.39404,0.5785 1.90282,1.15929 0.47536,0.54263 0.48088,1.23356 0.0166,2.0805 -0.47871,0.87327 -0.89676,1.28576 -1.48031,1.46059 -0.63251,0.18951 -0.63564,0.1892 -1.21995,-0.11933 z"
         id="path419" /><path
         style="fill:#000000;fill-opacity:1"
         d="m 73.15052,120.18098 c -0.652551,-0.44342 -0.883926,-0.93539 -0.883926,-1.87946 0,-0.74113 0.02719,-0.80775 0.52044,-1.27515 1.194402,-1.13181 2.390976,-1.13084 3.386282,0.003 0.732713,0.83451 0.687607,1.9777 -0.111005,2.81337 -0.50184,0.52513 -0.878425,0.66997 -1.741953,0.66997 -0.513551,0 -0.80252,-0.0819 -1.169838,-0.33148 z"
         id="path418" /><path
         style="fill:#000000;fill-opacity:1"
         d="m 113.35737,122.54253 c -0.36346,-0.17597 -0.83526,-0.50202 -1.04845,-0.72454 -0.32326,-0.33741 -0.38384,-0.50254 -0.3648,-0.99437 0.0243,-0.62845 0.1841,-0.94705 0.76423,-1.52386 1.08074,-1.07457 2.91758,-0.60916 3.55202,0.89999 0.27193,0.64687 0.0351,1.23061 -0.81415,2.00679 -0.84163,0.7692 -1.10619,0.81175 -2.08885,0.33599 z"
         id="path417" /><path
         style="fill:#000000;fill-opacity:1"
         d="m 68.926146,127.41706 c -0.549831,-0.52683 -0.591513,-0.61358 -0.582618,-1.21257 0.01131,-0.7615 0.274861,-1.26163 0.954858,-1.812 0.435314,-0.35233 0.597387,-0.40173 1.324721,-0.40382 0.966568,-0.003 1.212743,0.15925 1.647587,1.08434 0.256371,0.5454 0.26688,0.65236 0.110616,1.12585 -0.09497,0.28775 -0.452267,0.80724 -0.793999,1.15441 -0.593558,0.603 -0.653687,0.63122 -1.345149,0.63122 -0.675011,0 -0.763748,-0.0383 -1.316016,-0.56743 z"
         id="path416" /><path
         style="fill:#000000;fill-opacity:1"
         d="m 115.19799,130.45333 c -0.1442,-0.0797 -0.57144,-0.37972 -0.94943,-0.66666 -0.51609,-0.39177 -0.7214,-0.64851 -0.82436,-1.03085 -0.19988,-0.74232 0.0432,-1.50992 0.6661,-2.10302 0.94128,-0.89632 2.00051,-0.84027 3.0163,0.15961 0.58213,0.573 0.64761,0.696 0.64761,1.21648 0,1.64578 -1.46001,3.03051 -2.55622,2.42444 z"
         id="path415" /><path
         style="fill:#000000;fill-opacity:1"
         d="m 66.486871,135.21625 c -0.235579,-0.1202 -0.602104,-0.4361 -0.814499,-0.70201 -0.335012,-0.41942 -0.387231,-0.59591 -0.394157,-1.33214 -0.0068,-0.72506 0.04308,-0.91562 0.342633,-1.30835 0.705625,-0.92512 1.974001,-0.95789 2.858052,-0.0738 0.454391,0.45439 0.510488,0.5811 0.510488,1.15301 0,0.58207 -0.06297,0.71699 -0.669319,1.43398 -0.804378,0.95118 -1.22312,1.14061 -1.833198,0.82935 z"
         id="path414" /><path
         style="fill:#000000;fill-opacity:1"
         d="m 115.98392,137.80887 c -0.52499,-0.15285 -1.3722,-0.96703 -1.39034,-1.33613 -0.0312,-0.63395 0.0514,-0.97502 0.38691,-1.59763 0.45029,-0.8357 1.0941,-1.51601 1.43467,-1.51601 0.77388,0 2.64993,1.37043 2.64993,1.93573 0,0.97968 -0.70145,1.98848 -1.6719,2.40446 -0.62822,0.26928 -0.81175,0.28356 -1.40927,0.10958 z"
         id="path413" /><path
         style="fill:#000000;fill-opacity:1"
         d="m 121.57624,144.65317 c -1.0144,-1.01441 -0.76239,-2.74955 0.54407,-3.74604 0.36721,-0.28008 0.58401,-0.33817 1.26212,-0.33817 0.68171,0 0.90165,0.0596 1.31402,0.356 0.53014,0.38108 1.18523,1.40749 1.18523,1.85708 0,0.43303 -0.77518,1.57861 -1.34993,1.99495 -0.46561,0.33729 -0.63307,0.38006 -1.48814,0.38006 -0.94276,0 -0.97433,-0.0108 -1.46737,-0.50388 z"
         id="path412" /><path
         style="fill:#000000;fill-opacity:1"
         d="m 117.26987,145.80353 c -0.54381,-0.16345 -1.3509,-1.13958 -1.3509,-1.63384 0,-0.51275 0.2565,-1.2264 0.62277,-1.73272 0.24118,-0.33341 0.40294,-0.42604 0.74394,-0.42604 0.80249,0 1.28196,0.16673 1.70978,0.59454 0.55595,0.55596 0.67862,1.26338 0.36496,2.10461 -0.35974,0.96482 -1.14756,1.37689 -2.09055,1.09345 z"
         id="path411" /><path
         style="fill:#000000;fill-opacity:1"
         d="m 53.773618,147.65914 c -0.681291,-0.37242 -1.432434,-1.60583 -1.432434,-2.35212 0,-0.19912 -0.08026,-0.4718 -0.178351,-0.60595 -0.17077,-0.23354 -0.222307,-0.22271 -1.212566,0.25473 -1.535724,0.74043 -1.717554,0.77516 -2.092925,0.39979 -0.250194,-0.25019 -0.298634,-0.40264 -0.237665,-0.74797 0.216092,-1.22395 1.331253,-2.70559 2.640681,-3.50848 2.374464,-1.45593 4.75032,-0.55417 6.164322,2.33969 0.593126,1.21388 0.627984,1.98551 0.134423,2.97572 -0.485232,0.9735 -1.162744,1.39046 -2.35869,1.4516 -0.767919,0.0393 -1.051553,-0.002 -1.426795,-0.20701 z"
         id="path410" /><path
         style="fill:#000000;fill-opacity:1"
         d="m 57.422275,154.27134 c -0.931922,-0.64434 -1.117515,-1.52 -0.559497,-2.6398 0.476588,-0.95638 1.010283,-1.42164 1.630772,-1.42164 1.053135,0 1.669315,0.70349 1.530796,1.74769 -0.105455,0.79496 -0.539387,1.97619 -0.832771,2.26692 -0.12674,0.1256 -0.466395,0.26377 -0.754789,0.30705 -0.429048,0.0644 -0.613443,0.0171 -1.014511,-0.26022 z"
         id="path409" /><path
         style="fill:#000000;fill-opacity:1"
         d="m 59.652003,160.23664 c -0.442356,-0.34796 -0.650569,-0.8996 -0.600968,-1.59221 l 0.04119,-0.57519 0.837869,-0.0395 c 0.761688,-0.0359 0.871936,-0.007 1.212566,0.31947 0.553228,0.53003 0.485507,1.4982 -0.138296,1.97714 -0.316381,0.24291 -0.985979,0.19849 -1.352363,-0.0897 z"
         id="path408" /><path
         style="fill:#000000;fill-opacity:1"
         d="m 113.2661,168.941 c -0.20592,-0.11174 -0.39097,-0.3469 -0.43426,-0.55188 -0.0415,-0.19645 -0.0998,-0.47971 -0.12957,-0.62948 -0.0298,-0.14976 0.002,-0.61619 0.0703,-1.0365 0.20981,-1.28913 0.98558,-1.83731 2.60008,-1.83731 0.91984,0 0.97758,0.0184 1.34366,0.4281 0.3024,0.33845 0.38251,0.55151 0.38251,1.01736 0,1.25793 -0.88999,2.38029 -2.11096,2.66212 -0.86187,0.19894 -1.28204,0.18615 -1.72171,-0.0524 z"
         id="path407" /><path
         style="fill:#000000;fill-opacity:1"
         d="m 71.057797,193.94695 c -0.770275,-0.0639 -1.508031,-0.92638 -1.981838,-2.31693 -0.273393,-0.80237 -0.274765,-1.3317 -0.0055,-2.1278 0.434609,-1.28502 0.936624,-1.59833 2.24634,-1.40192 0.53435,0.0801 0.727612,0.20989 1.543155,1.03608 1.060567,1.07443 1.504068,1.88788 1.504068,2.7587 0,1.21534 -0.747092,1.96719 -2.031867,2.04481 -0.432591,0.0261 -1.006045,0.0293 -1.274341,0.007 z"
         id="path406" /><path
         style="fill:#000000;fill-opacity:1"
         d="m 94.603827,195.3258 c -1.244204,-0.53895 -1.319424,-0.75919 -0.775121,-2.26953 0.430169,-1.19364 0.650537,-1.3629 1.774462,-1.3629 0.842574,0 0.910857,0.0231 1.245614,0.42091 0.320692,0.38112 0.3463,0.4879 0.270884,1.12957 -0.102241,0.86991 -0.54512,1.93437 -0.911623,2.19108 -0.374385,0.26223 -0.816326,0.23217 -1.604216,-0.10913 z"
         id="path405" /><path
         style="fill:#000000;fill-opacity:1"
         d="m 129.72013,197.47326 c -1.0056,-0.72845 -1.33842,-1.50953 -1.08019,-2.53504 0.1657,-0.65806 0.78573,-1.40043 1.46153,-1.7499 0.23746,-0.12279 0.82127,-0.25113 1.29735,-0.2852 0.82028,-0.0587 0.88423,-0.0422 1.22141,0.31473 0.43639,0.46196 0.73348,1.13098 0.73348,1.65173 0,0.57255 -0.58463,1.65024 -1.28167,2.36262 -0.55355,0.56574 -0.66484,0.62267 -1.21719,0.62267 -0.46331,0 -0.73324,-0.0908 -1.13472,-0.38161 z"
         id="path404" /><path
         style="fill:#000000;fill-opacity:1"
         d="m 52.734448,198.93612 c -0.9512,-0.3071 -2.097411,-1.53468 -2.097411,-2.2463 0,-0.6873 0.793041,-1.58781 1.398315,-1.58781 0.507198,0 1.252427,0.37044 1.780574,0.88508 0.442386,0.43108 0.491581,0.54657 0.491581,1.15401 0,0.48333 -0.08375,0.79889 -0.294949,1.11131 -0.307388,0.45471 -0.939704,0.79296 -1.27811,0.68371 z"
         id="path403" /><path
         style="fill:#000000;fill-opacity:1"
         d="m 94.224416,114.93458 c 0.593969,-0.31582 0.679705,-0.32692 1.519377,-0.19664 1.40693,0.2183 1.889229,0.18114 2.306377,-0.17768 0.34604,-0.29765 0.366509,-0.37466 0.357104,-1.34365 -0.0065,-0.66895 -0.08261,-1.16524 -0.217969,-1.42117 -0.32478,-0.61408 -1.089549,-1.37643 -1.380809,-1.37643 -0.665562,0 -2.81372,1.42601 -3.993823,2.65122 -0.638461,0.66286 -0.733326,0.9534 -0.474736,1.45391 0.434103,0.84022 0.889584,0.93943 1.884479,0.41044 z"
         id="path402" /><path
         style="fill:#000000;fill-opacity:1"
         d="m 89.607222,119.93854 c 0.629043,-0.26991 1.23812,-0.98607 1.420085,-1.66974 0.150733,-0.56633 0.139183,-0.64249 -0.178932,-1.1798 -0.187037,-0.31591 -0.627799,-0.85547 -0.97947,-1.19903 -0.562139,-0.54916 -0.688504,-0.61482 -1.045743,-0.54337 -0.531457,0.10629 -1.297971,0.74611 -1.525881,1.27368 -0.421121,0.97482 -0.479894,1.17648 -0.479894,1.6466 0,0.37973 0.111245,0.62455 0.479048,1.05425 0.263476,0.30781 0.602667,0.60964 0.753757,0.67073 0.420891,0.17017 1.089553,0.14727 1.55703,-0.0533 z"
         id="path401" /><path
         style="fill:#000000;fill-opacity:1"
         d="m 100.66041,121.03445 c 0.55924,-0.19689 1.35623,-1.40711 1.45043,-2.20246 0.0898,-0.75796 -0.18937,-1.46138 -0.71714,-1.80719 -0.52736,-0.34554 -1.712709,-0.30573 -2.248085,0.0755 -0.817051,0.58179 -1.202958,2.30917 -0.704425,3.15312 0.24458,0.41404 0.851293,0.7241 1.76041,0.89963 0.0433,0.008 0.24978,-0.045 0.45881,-0.11859 z"
         id="path400" /><path
         style="fill:#000000;fill-opacity:1"
         d="m 86.033131,123.83336 c 0.502826,-0.29702 0.697854,-0.70896 0.70918,-1.49793 0.01,-0.69488 -0.0088,-0.72252 -1.07627,-1.58453 -0.920496,-0.74332 -1.511524,-0.79064 -2.223659,-0.17802 -0.326224,0.28063 -0.359949,0.39059 -0.349998,1.14117 0.01218,0.9186 0.362218,1.77825 0.868475,2.13285 0.39589,0.27729 1.59318,0.26947 2.072272,-0.0135 z"
         id="path399" /><path
         style="fill:#000000;fill-opacity:1"
         d="m 104.82433,127.55853 c 0.57428,-0.63116 0.76046,-1.02854 0.76308,-1.62869 0.004,-0.92933 -0.96621,-1.749 -2.06489,-1.74441 -0.93597,0.004 -2.00498,0.86463 -2.24079,1.80418 -0.19666,0.78354 0.65532,1.97304 1.65951,2.31696 0.62426,0.21379 1.22511,-0.0249 1.88309,-0.74804 z"
         id="path398" /><path
         style="fill:#000000;fill-opacity:1"
         d="m 81.32217,129.40516 c 0.667589,-0.3752 0.907129,-0.81899 0.907129,-1.6806 0,-0.9354 -0.548652,-1.77092 -1.474743,-2.24582 -0.486545,-0.2495 -0.496835,-0.2494 -1.004604,0.01 -0.570804,0.2912 -1.31719,1.1496 -1.583971,1.82169 -0.143918,0.36256 -0.144585,0.52316 -0.0038,0.91762 0.213503,0.59823 0.791714,1.43019 1.052098,1.51381 0.432066,0.13875 1.591857,-0.0463 2.1079,-0.33634 z"
         id="path397" /><path
         style="fill:#000000;fill-opacity:1"
         d="m 76.236148,136.62478 c 0.448341,-0.15074 1.072393,-0.48447 1.386782,-0.74164 0.529487,-0.43311 0.566696,-0.50424 0.504878,-0.96514 -0.142529,-1.06263 -1.329282,-2.08585 -2.410995,-2.07876 -0.6827,0.004 -1.03382,0.22608 -1.583297,0.99926 -0.397515,0.55935 -0.404412,1.63205 -0.0146,2.27149 0.532741,0.87391 0.832372,0.94676 2.117236,0.51479 z"
         id="path396" /><path
         style="fill:#000000;fill-opacity:1"
         d="m 105.95831,136.78715 c 0.25122,-0.13352 0.65472,-0.50022 0.89666,-0.81488 0.38392,-0.49932 0.43169,-0.64482 0.37547,-1.14362 -0.081,-0.71868 -0.572,-1.25797 -1.39383,-1.53094 -0.5557,-0.18458 -0.65054,-0.18129 -1.24137,0.043 -0.81067,0.30773 -1.39245,0.77078 -1.71058,1.36151 -0.216,0.40109 -0.22718,0.51719 -0.0832,0.86465 0.23879,0.57649 0.99205,1.30495 1.41557,1.36895 0.81695,0.12347 1.30828,0.0815 1.74133,-0.14865 z"
         id="path395" /><path
         style="fill:#000000;fill-opacity:1"
         d="m 100.23474,141.06089 c 0.12654,-0.71378 -0.266451,-4.82451 -0.496871,-5.19734 -0.04317,-0.0698 -0.13931,-0.41113 -0.213656,-0.75842 -0.175371,-0.8192 -0.295894,-1.29501 -0.691205,-2.72884 -0.178901,-0.64888 -0.421279,-1.53373 -0.538618,-1.96632 -0.211309,-0.77903 -0.579646,-1.84372 -1.383191,-3.99819 -0.228568,-0.61284 -0.528808,-1.52718 -0.6672,-2.03187 -0.43253,-1.57736 -0.925512,-3.05732 -1.096138,-3.29066 -0.145324,-0.19874 -0.232233,-0.12173 -0.768783,0.68122 -0.332715,0.49791 -0.964335,1.39714 -1.403601,1.99829 -0.589181,0.80632 -0.788076,1.18454 -0.758296,1.44197 0.03778,0.32659 0.07821,0.34665 0.630264,0.31271 0.328968,-0.0202 0.747006,-0.1507 0.945082,-0.29495 0.195351,-0.14228 0.409778,-0.25868 0.476504,-0.25868 0.308337,0 0.898287,1.37489 2.316577,5.39884 0.541663,1.53679 1.128979,3.17761 1.305147,3.64625 0.4709,1.25268 0.797683,2.57908 1.173,4.76115 0.32112,1.86698 0.614264,2.71088 0.941675,2.71088 0.0846,0 0.18777,-0.19172 0.22931,-0.42604 z"
         id="path394" /><path
         style="fill:#000000;fill-opacity:1"
         d="m 70.559456,148.35146 c 0.646969,-0.54439 2.493667,-3.39815 2.493667,-3.85354 0,-0.31811 -0.347236,-0.65141 -0.678653,-0.65141 -0.146664,0 -0.433917,-0.14073 -0.63834,-0.31274 -0.287422,-0.24185 -0.462564,-0.29386 -0.772597,-0.22941 -0.53956,0.11217 -1.479414,0.88002 -1.876092,1.53276 -0.554969,0.91321 -0.667391,1.41808 -0.488414,2.19339 0.202896,0.87893 0.397612,1.17943 0.936198,1.44481 0.564105,0.27796 0.543773,0.28042 1.024231,-0.12386 z"
         id="path393" /><path
         style="fill:#000000;fill-opacity:1"
         d="m 107.69652,149.35074 c 1.16235,-1.02314 1.40242,-2.14312 0.66706,-3.112 -0.6324,-0.83323 -1.68943,-1.05008 -2.75662,-0.56553 -0.80891,0.36728 -1.61702,1.36628 -1.61702,1.999 0,0.35013 0.67989,1.31084 1.27459,1.80104 0.40568,0.3344 0.60424,0.40332 1.16196,0.40332 0.59841,0 0.7386,-0.058 1.27003,-0.52583 z"
         id="path392" /><path
         style="fill:#000000;fill-opacity:1"
         d="m 70.054857,156.24396 c 0.463178,-0.19596 1.421644,-1.11702 1.672074,-1.60682 0.210132,-0.41098 0.18162,-0.77026 -0.105133,-1.32472 -0.477227,-0.92277 -1.353197,-1.3462 -2.206373,-1.06655 -1.358144,0.44517 -2.261272,1.47605 -2.261272,2.58112 0,0.3966 0.09069,0.59151 0.426037,0.91562 0.717027,0.69301 1.599222,0.87174 2.474667,0.50135 z"
         id="path391" /><path
         style="fill:#000000;fill-opacity:1"
         d="m 107.16984,157.86676 c 1.45217,-0.96188 1.50149,-2.56733 0.10496,-3.41661 -1.07259,-0.65228 -2.69245,0.0383 -3.41583,1.45626 -0.37034,0.72593 -0.33174,0.961 0.24797,1.51034 0.71097,0.67371 1.02862,0.82184 1.79408,0.83662 0.53575,0.0103 0.7835,-0.0651 1.26882,-0.38661 z"
         id="path390" /><path
         style="fill:#000000;fill-opacity:1"
         d="m 70.585582,166.4383 c 0.524244,-0.47444 1.287747,-1.77616 1.287747,-2.19553 0,-0.58048 -0.741187,-1.75936 -1.393566,-2.21651 -0.684263,-0.47949 -1.10834,-0.40906 -1.938875,0.32201 -0.756009,0.66546 -1.060957,1.29548 -1.05215,2.17373 0.0056,0.55762 0.07991,0.77634 0.400863,1.17979 0.784065,0.98559 2.041244,1.32904 2.695981,0.73651 z"
         id="path389" /><path
         style="fill:#000000;fill-opacity:1"
         d="m 104.57984,166.85599 c 0.73072,-0.48137 1.37643,-1.45591 1.37643,-2.07739 0,-0.35232 -0.53111,-1.21439 -0.96261,-1.56246 -0.73417,-0.59223 -1.73941,-0.51027 -2.64187,0.21542 -0.57464,0.46208 -0.85348,0.96959 -0.84964,1.54642 0.006,0.84178 0.72169,1.9435 1.37354,2.11325 0.39089,0.10179 1.40505,-0.0382 1.70415,-0.23524 z"
         id="path388" /><path
         style="fill:#000000;fill-opacity:1"
         d="m 72.841635,174.09512 c 0.445541,-0.40127 0.866929,-1.20664 0.866929,-1.6569 0,-0.60054 -0.913124,-1.53139 -1.765932,-1.80022 -0.918141,-0.28942 -1.395118,-0.11066 -1.922133,0.72036 -0.607972,0.95867 -0.448404,1.87803 0.443494,2.55521 0.696742,0.529 1.890645,0.62017 2.377642,0.18155 z"
         id="path387" /><path
         style="fill:#000000;fill-opacity:1"
         d="m 100.26325,175.55384 c 0.37393,-0.0942 0.70653,-0.29244 0.92397,-0.55085 0.297,-0.35298 0.33303,-0.49628 0.2865,-1.13957 -0.0603,-0.8334 -0.42338,-1.45723 -1.03108,-1.77149 -0.33936,-0.17549 -0.478015,-0.17459 -1.282057,0.008 -1.255641,0.28559 -1.637658,0.69008 -1.637658,1.73398 0,1.5523 0.975029,2.16416 2.740325,1.71965 z"
         id="path386" /><path
         style="fill:#000000;fill-opacity:1"
         d="m 76.426141,181.72662 c 0.9381,-0.68988 0.911222,-1.62945 -0.07361,-2.57309 -0.570916,-0.54703 -0.64312,-0.57807 -1.259884,-0.54169 -0.578634,0.0341 -0.688865,0.0901 -0.95363,0.48402 -0.342873,0.51016 -0.417935,1.77114 -0.135508,2.27644 0.370543,0.66296 0.513441,0.75198 1.207058,0.75198 0.545255,0 0.778678,-0.0764 1.21557,-0.39766 z"
         id="path385" /><path
         style="fill:#000000;fill-opacity:1"
         d="m 95.150042,183.59641 c 0.08837,-0.12474 0.342297,-0.45422 0.564289,-0.73218 0.508503,-0.63672 0.63151,-1.23417 0.361572,-1.75618 -0.23054,-0.44581 -1.401228,-1.47445 -1.67807,-1.47445 -0.261865,0 -1.455902,1.2685 -1.86174,1.97784 -0.41468,0.7248 -0.434836,1.197 -0.0728,1.70544 0.488763,0.6864 1.357821,0.9731 2.077782,0.68544 0.246563,-0.0985 0.520596,-0.28117 0.608963,-0.40591 z"
         id="path384" /><path
         style="fill:#000000;fill-opacity:1"
         d="m 92.060916,152.06467 c -1.092031,-1.06022 -1.254562,-1.15694 -2.76216,-1.64369 -0.580135,-0.18731 -2.107854,-0.19525 -2.80909,-0.0146 -0.288394,0.0743 -1.542673,0.64911 -2.787287,1.27738 -2.413112,1.21811 -2.593581,1.2464 -2.393274,0.37523 0.211327,-0.9191 1.606187,-3.33141 2.502623,-4.32811 0.491941,-0.54696 1.125714,-1.33504 1.408384,-1.75129 0.77256,-1.13765 2.856778,-3.16276 3.629142,-3.52622 0.809714,-0.38104 0.906871,-0.38239 1.421735,-0.0198 1.146145,0.80722 1.945513,1.99979 2.438458,3.63792 1.430421,4.75348 1.648634,7.08488 0.662351,7.07661 -0.108148,-9.1e-4 -0.698045,-0.48846 -1.310882,-1.08345 z"
         id="path383" /><path
         style="fill:#000000;fill-opacity:1"
         d="m 80.947874,176.80427 c -0.372082,-0.40448 -1.227531,-2.52778 -1.474378,-3.65954 -0.0629,-0.28839 -0.20413,-0.90778 -0.313839,-1.37642 -0.10971,-0.46864 -0.293934,-1.79591 -0.409386,-2.94949 -0.173376,-1.73233 -0.183603,-2.3484 -0.05875,-3.53938 0.322718,-3.07854 1.153561,-5.99668 2.076341,-7.29265 0.991479,-1.39246 1.454422,-1.76224 3.577452,-2.85753 2.043727,-1.05439 2.053789,-1.05786 3.061404,-1.05786 0.905278,0 1.10394,0.0489 1.900789,0.4676 1.251048,0.65741 2.725191,2.11027 3.267105,3.21993 0.233447,0.47803 0.47417,1.06792 0.53494,1.31088 0.06077,0.24296 0.2367,0.86998 0.390956,1.39338 0.339862,1.15316 0.503814,3.55026 0.35631,5.20952 -0.05769,0.64888 -0.422664,2.61927 -0.811066,4.37862 -1.033684,4.68233 -1.227189,4.53729 -1.239454,-0.92899 -0.01045,-4.65981 -0.306455,-5.88727 -1.831603,-7.59532 -0.982482,-1.10031 -1.580954,-1.34024 -3.353936,-1.34462 -1.361327,-0.003 -1.479594,0.0181 -2.114696,0.38379 -0.902339,0.51955 -1.485871,1.04184 -2.043788,1.82931 -0.575546,0.81235 -1.15059,1.94359 -1.15059,2.26347 0,0.13217 -0.05295,0.29636 -0.117661,0.36485 -0.386846,0.40944 -0.491853,4.80728 -0.206887,8.66475 0.123294,1.66898 0.202513,3.09367 0.176043,3.16597 -0.02782,0.076 -0.118684,0.0548 -0.215302,-0.0503 z"
         id="path382" /><path
         style="fill:#000000;fill-opacity:1"
         d="m 84.79651,186.26409 c -0.225611,-0.59075 -0.79773,-3.26371 -1.278898,-5.97505 -0.497534,-2.80356 -0.472366,-9.63089 0.04422,-11.99457 0.301062,-1.37754 0.947191,-2.74564 1.612204,-3.41366 0.874066,-0.87801 2.003587,-0.76623 2.922693,0.28923 0.659457,0.75729 0.733459,0.96453 0.82805,2.31889 0.175949,2.51924 -0.09795,5.41798 -0.794538,8.40866 -0.631744,2.71229 -0.874673,3.71826 -1.179194,4.88303 -0.07069,0.27037 -0.277833,1.14047 -0.460327,1.93356 -0.683831,2.9718 -1.069185,4.12928 -1.374743,4.12928 -0.05401,0 -0.19777,-0.26072 -0.319463,-0.57937 z"
         id="path381" /><path
         style="fill:#000000;fill-opacity:1"
         d="m 51.330076,166.48842 c 0.906019,-0.94968 1.273284,-1.59363 1.273284,-2.23252 0,-0.32068 -0.09094,-0.80069 -0.202089,-1.06671 -0.244367,-0.58485 -1.182996,-1.63063 -1.608901,-1.79255 -0.720945,-0.27411 -1.951247,0.80439 -2.304736,2.02034 -0.39966,1.37479 -0.258958,1.77036 1.049867,2.95162 0.571924,0.51618 0.947349,0.7634 1.085283,0.71467 0.115987,-0.041 0.434268,-0.30867 0.707292,-0.59485 z"
         id="path378" /><path
         style="fill:#000000;fill-opacity:1"
         d="m 52.467609,175.1398 c 1.069253,-0.43425 1.46651,-1.0854 1.479716,-2.42541 0.01111,-1.12684 -0.17318,-1.62961 -0.86706,-2.36553 -0.500222,-0.53053 -1.123441,-0.80905 -1.810306,-0.80905 -0.668221,0 -1.113273,0.23954 -1.771203,0.95331 -0.710752,0.77107 -1.010687,1.42012 -0.907082,1.96288 0.137644,0.72108 0.688459,1.75892 1.266132,2.38562 0.517385,0.56129 0.590777,0.59692 1.221963,0.59313 0.382274,-0.002 0.98006,-0.12933 1.38784,-0.29495 z"
         id="path377" /><path
         style="fill:#000000;fill-opacity:1"
         d="m 55.225109,184.81161 c 0.207481,-0.25 0.113496,-2.33754 -0.127968,-2.84233 -0.186374,-0.38962 -0.686766,-0.64609 -1.320654,-0.67687 -0.694168,-0.0337 -0.760884,0.27324 -0.278766,1.28254 0.229087,0.47959 0.416521,0.90166 0.416521,0.93794 0,0.15419 0.92471,1.49533 1.031027,1.49533 0.06417,0 0.190094,-0.0885 0.27984,-0.19661 z"
         id="path376" /><path
         style="fill:#000000;fill-opacity:1"
         d="m 57.111813,187.29171 c 0.14352,-0.374 -0.07547,-2.03876 -0.278432,-2.11664 -0.22793,-0.0875 -1.34608,0.45093 -1.34608,0.64815 0,0.11763 0.379185,0.63131 1.112305,1.50683 0.18694,0.22325 0.418477,0.20592 0.512207,-0.0383 z"
         id="path375" /><path
         style="fill:#000000;fill-opacity:1"
         d="m 91.929828,202.43029 c -0.639184,-0.17869 -1.525725,-0.63537 -1.781011,-0.91746 -0.155399,-0.17171 -0.210678,-0.47045 -0.201407,-1.08845 0.02215,-1.47644 0.565429,-2.437 1.672725,-2.95749 0.76245,-0.35839 1.294437,-0.33107 2.079384,0.10679 0.999088,0.55731 1.245338,1.01333 1.245338,2.3062 0,0.9365 -0.04338,1.13553 -0.350871,1.60975 -0.523324,0.80708 -1.680464,1.21565 -2.664158,0.94066 z"
         id="path372" /><path
         style="fill:#000000;fill-opacity:1"
         d="m 73.774108,202.43529 c -1.113373,-0.27493 -1.995879,-0.96607 -2.493237,-1.95261 -0.476812,-0.94578 -0.2142,-2.26934 0.532456,-2.68357 0.140008,-0.0777 0.426793,-0.27817 0.6373,-0.44556 0.321629,-0.25574 0.478773,-0.29139 0.984199,-0.22331 0.43531,0.0586 0.815348,0.007 1.375738,-0.18725 0.77311,-0.26786 1.777797,-0.34119 2.552291,-0.1863 0.915225,0.18305 1.963774,1.50621 2.169295,2.73744 0.07548,0.45216 0.02949,0.61322 -0.330075,1.15607 -0.553288,0.83531 -1.115038,1.26481 -2.041895,1.56117 -0.907597,0.2902 -2.650824,0.40548 -3.386072,0.22392 z"
         id="path371" /><path
         style="fill:#000000;fill-opacity:1"
         d="m 57.571055,205.0896 c -0.896605,-0.2384 -1.754202,-1.20479 -2.094748,-2.36049 -0.135365,-0.45939 -0.134842,-0.65628 0.0028,-1.04871 0.323198,-0.92154 1.506634,-1.85956 2.34609,-1.85956 0.950982,0 2.098218,0.66423 2.796865,1.61934 0.368903,0.50432 0.392372,0.6021 0.324656,1.35259 -0.09187,1.0182 -0.426032,1.73174 -0.955092,2.03943 -0.44377,0.25809 -1.853973,0.40804 -2.420559,0.2574 z"
         id="path370" /><path
         style="fill:#000000;fill-opacity:1"
         d="m 123.53702,205.42021 c -1.05478,-0.33692 -2.41284,-2.33038 -2.57927,-3.78601 -0.13429,-1.17465 0.21953,-1.87476 1.23671,-2.44711 0.53667,-0.30198 1.64745,-0.34621 2.34246,-0.0933 1.98744,0.72329 2.74774,1.3725 3.04152,2.5971 0.3819,1.59194 -0.75037,3.38602 -2.37314,3.76023 -0.69711,0.16075 -1.09105,0.15345 -1.66828,-0.0309 z"
         id="path369" /><path
         style="fill:#000000;fill-opacity:1"
         d="m 116.63995,211.13836 c -1.13312,-0.59871 -1.29467,-1.19273 -1.58545,-5.82982 -0.0704,-1.12348 -0.0678,-1.13592 0.33774,-1.59783 0.49494,-0.56371 1.15012,-0.8033 1.87826,-0.68687 1.30632,0.20889 2.22832,0.93606 3.00284,2.36829 0.62571,1.15706 0.7539,1.60277 0.75609,2.62887 0.002,0.80926 -0.0488,1.00568 -0.40453,1.57306 -0.55239,0.88101 -1.01654,1.35527 -1.54306,1.57669 -0.59021,0.24821 -1.94484,0.23024 -2.44189,-0.0324 z"
         id="path368" /><path
         style="fill:#000000;fill-opacity:1"
         d="m 120.91975,224.01744 c 0.70101,-0.2929 1.29146,-1.14364 1.29146,-1.8608 0,-1.20248 -1.63336,-2.32941 -2.666,-1.83939 -0.70008,0.33221 -1.11369,0.83228 -1.20788,1.46036 -0.15906,1.06066 0.084,1.52662 1.12103,2.14921 0.53959,0.32395 0.856,0.34357 1.46139,0.0906 z"
         id="path363" /><path
         style="fill:#000000;fill-opacity:1"
         d="m 66.238794,224.4982 c 0.674047,-0.48312 0.915359,-0.92969 0.915359,-1.69394 0,-1.11398 -0.845368,-2.0093 -1.897198,-2.0093 -0.616441,0 -1.575061,0.84644 -1.697446,1.49881 -0.139955,0.74602 0.05043,1.46338 0.540249,2.03563 0.405043,0.4732 0.515751,0.52929 1.04457,0.52929 0.435962,0 0.72377,-0.0948 1.094466,-0.36049 z"
         id="path362" /><path
         style="fill:#000000;fill-opacity:1"
         d="m 114.99293,227.06204 c 0.40811,-0.25487 0.92604,-1.32226 0.92604,-1.90846 0,-0.6155 -0.29717,-1.04361 -1.11503,-1.60631 -0.8653,-0.59534 -1.40458,-0.54624 -2.11225,0.19233 -0.6456,0.67378 -0.81755,1.27644 -0.58532,2.05153 0.18412,0.61457 0.82834,1.38613 1.22991,1.47304 0.43516,0.0942 1.36354,-0.0191 1.65665,-0.20213 z"
         id="path361" /><path
         style="fill:#000000;fill-opacity:1"
         d="m 72.465885,228.07573 c 0.970183,-0.56857 1.193747,-1.23681 0.768961,-2.29846 -0.520757,-1.3015 -2.070532,-1.52835 -2.934909,-0.42961 -0.528022,0.67118 -0.673758,1.18008 -0.472905,1.65133 0.19895,0.46678 0.609775,0.87315 1.194224,1.18127 0.54464,0.28712 0.808955,0.268 1.444629,-0.10453 z"
         id="path360" /><path
         style="fill:#000000;fill-opacity:1"
         d="m 108.2413,229.43045 c 0.52057,-0.40948 0.941,-1.14724 1.04308,-1.8304 0.16584,-1.10984 -0.31192,-1.65735 -1.55845,-1.78601 -0.89529,-0.0924 -1.26901,0.007 -1.80957,0.4817 -0.89086,0.78219 -0.92115,1.73698 -0.0823,2.59494 0.79781,0.81602 1.77696,1.03557 2.40727,0.53977 z"
         id="path359" /><path
         style="fill:#000000;fill-opacity:1"
         d="m 86.693719,222.90039 c 0.544377,-0.57226 0.729258,-1.23664 0.583768,-2.09779 -0.208264,-1.2327 -1.911033,-2.02287 -2.727863,-1.26585 -0.782829,0.7255 -0.962921,1.98144 -0.417562,2.91202 0.433572,0.73984 0.78459,0.96795 1.489452,0.96795 0.505834,0 0.644591,-0.0668 1.072205,-0.51633 z"
         id="path358" /><path
         style="fill:#000000;fill-opacity:1"
         d="m 84.326711,226.99488 c -0.736396,-0.3523 -2.490677,-1.97744 -2.490677,-2.30734 0,-0.0951 -0.132727,-0.43465 -0.294948,-0.75461 -0.263652,-0.52002 -0.293505,-0.76258 -0.281347,-2.2859 0.01193,-1.49507 0.05122,-1.78456 0.320192,-2.35959 0.737956,-1.57763 1.672753,-2.74232 2.534831,-3.1582 0.921685,-0.44463 2.137236,-0.43824 3.079249,0.0162 1.226975,0.59192 3.070542,2.71671 3.607906,4.15828 0.18565,0.49803 0.22346,0.9319 0.188492,2.16295 -0.03778,1.33009 -0.09009,1.6382 -0.383829,2.26094 -0.815488,1.72884 -2.331021,2.62053 -4.444634,2.61507 -0.929549,-0.002 -1.233763,-0.0601 -1.835235,-0.3478 z"
         id="path357" /><path
         style="fill:#000000;fill-opacity:1"
         d="m 101.28436,230.62504 c 0.48938,-0.42969 1.00144,-1.38801 1.00144,-1.87422 0,-0.43991 -0.82004,-1.33394 -1.4575,-1.589 -0.57504,-0.23008 -1.209533,-0.17917 -1.509855,0.12115 -0.507224,0.50722 -0.834206,1.18385 -0.834206,1.72623 0,0.49116 0.07861,0.65981 0.541748,1.16226 0.496692,0.53884 1.002483,0.80599 1.583873,0.83656 0.12366,0.007 0.42719,-0.16584 0.6745,-0.38298 z"
         id="path355" /><path
         style="fill:#000000;fill-opacity:1"
         d="m 94.345785,231.44588 c 0.578975,-0.61057 0.90681,-1.27698 0.811562,-1.64971 -0.03989,-0.15612 -0.255791,-0.50505 -0.479775,-0.77542 -0.521394,-0.62937 -0.873402,-0.63306 -1.890474,-0.0198 -1.379851,0.83202 -1.449535,1.20433 -0.41841,2.23545 0.889435,0.88944 1.291873,0.93207 1.977097,0.20946 z"
         id="path354" /><path
         style="fill:#000000;fill-opacity:1"
         d="m 78.991969,231.67205 c 0.625299,-0.49186 1.015969,-1.71355 0.761763,-2.38216 -0.139417,-0.36669 -0.657355,-0.59457 -1.45708,-0.64107 -0.837821,-0.0487 -1.058469,0.008 -1.382685,0.3583 -0.267084,0.28818 -0.321462,0.48012 -0.321462,1.13464 0,0.63814 0.0622,0.86933 0.327407,1.21704 0.180073,0.23609 0.460274,0.45484 0.622669,0.4861 0.686628,0.13221 1.128576,0.0795 1.449388,-0.17285 z"
         id="path353" /></g></g></svg>
