<?xml version="1.0" encoding="UTF-8" standalone="no"?>
<!-- Created with Inkscape (http://www.inkscape.org/) -->

<svg
   xmlns:dc="http://purl.org/dc/elements/1.1/"
   xmlns:cc="http://creativecommons.org/ns#"
   xmlns:rdf="http://www.w3.org/1999/02/22-rdf-syntax-ns#"
   xmlns:svg="http://www.w3.org/2000/svg"
   xmlns="http://www.w3.org/2000/svg"
   xmlns:sodipodi="http://sodipodi.sourceforge.net/DTD/sodipodi-0.dtd"
   xmlns:inkscape="http://www.inkscape.org/namespaces/inkscape"
   id="svg3940"
   version="1.1"
   inkscape:version="0.48.5 r10040"
   width="1000"
   height="230.72574"
   xml:space="preserve"
   sodipodi:docname="A.svg"><metadata
     id="metadata3946"><rdf:RDF><cc:Work
         rdf:about=""><dc:format>image/svg+xml</dc:format><dc:type
           rdf:resource="http://purl.org/dc/dcmitype/StillImage" /><dc:title></dc:title></cc:Work></rdf:RDF></metadata><defs
     id="defs3944"><clipPath
       clipPathUnits="userSpaceOnUse"
       id="clipPath3962"><path
         d="m 85.039,767.558 113.392,0 0,37.481 -113.392,0 0,-37.481 z"
         id="path3964"
         inkscape:connector-curvature="0" /></clipPath><clipPath
       clipPathUnits="userSpaceOnUse"
       id="clipPath4080"><path
         d="m 16.395,3.82 68.644,0 0,57.692 -68.644,0 0,-57.692 z"
         id="path4082"
         inkscape:connector-curvature="0" /></clipPath><clipPath
       clipPathUnits="userSpaceOnUse"
       id="clipPath4182"><path
         d="m 0,0 595.276,0 0,841.89 L 0,841.89 0,0 z"
         id="path4184"
         inkscape:connector-curvature="0" /></clipPath><clipPath
       clipPathUnits="userSpaceOnUse"
       id="clipPath4286"><path
         d="m 85.039,352.763 87.74,0 0,-43.22 -87.74,0 0,43.22 z"
         id="path4288"
         inkscape:connector-curvature="0" /></clipPath><clipPath
       clipPathUnits="userSpaceOnUse"
       id="clipPath7192"><path
         inkscape:connector-curvature="0"
         d="m 421.208,783.472 145.721,0 0,31.229 -145.721,0 0,-31.229 z"
         id="path7194" /></clipPath><clipPath
       clipPathUnits="userSpaceOnUse"
       id="clipPath7148"><path
         inkscape:connector-curvature="0"
         d="m 421.2,783.472 145.729,0 0,31.229 -145.729,0 0,-31.229 z"
         id="path7150" /></clipPath></defs><sodipodi:namedview
     pagecolor="#ffffff"
     bordercolor="#666666"
     borderopacity="1"
     objecttolerance="10"
     gridtolerance="10"
     guidetolerance="10"
     inkscape:pageopacity="0"
     inkscape:pageshadow="2"
     inkscape:window-width="1060"
     inkscape:window-height="1029"
     id="namedview3942"
     showgrid="false"
     fit-margin-left="0.5"
     fit-margin-bottom="0.5"
     fit-margin-top="0.5"
     fit-margin-right="0.5"
     inkscape:zoom="0.72883627"
     inkscape:cx="555.02671"
     inkscape:cy="-23.714943"
     inkscape:window-x="854"
     inkscape:window-y="-14"
     inkscape:window-maximized="0"
     inkscape:current-layer="g3948" /><g
     id="g3948"
     inkscape:groupmode="layer"
     inkscape:label="Compliance_Letter"
     transform="matrix(1.25,0,0,-1.25,-738.25468,1380.707)"><g
       id="g7487"
       transform="matrix(5.1163863,0,0,5.1163863,1298.073,920.38501)"><path
         inkscape:connector-curvature="0"
         d="M 0,0 18.007,17.963 13.492,22.427 7.881,16.816"
         style="fill:#000000;fill-opacity:1;fill-rule:nonzero;stroke:none"
         id="path7489" /></g><g
       id="g7491"
       transform="matrix(5.1163863,0,0,5.1163863,1298.073,1104.1656)"><path
         inkscape:connector-curvature="0"
         d="M 0,0 -17.959,-17.959 0,-35.92 l 7.881,16.816 5.611,5.611"
         style="fill:#efc42c;fill-opacity:1;fill-rule:nonzero;stroke:none"
         id="path7493" /></g><g
       id="g7495"
       transform="matrix(5.1163863,0,0,5.1163863,672.83523,988.55062)"
       style="fill:#000000"><path
         inkscape:connector-curvature="0"
         d="m 0,0 c -1.131,-2.263 -3.512,-3.957 -7.067,-3.957 -5.534,0 -8.927,3.673 -8.927,8.855 0,4.827 2.826,8.95 8.55,8.95 5.606,0 8.125,-3.371 8.242,-6.712 l -5.745,0 c -0.471,1.763 -1.578,2.12 -2.353,2.12 -1.016,0 -2.734,-0.707 -2.734,-4.261 0,-3.56 1.718,-4.267 2.734,-4.267 0.609,0 1.46,0.261 2.046,1.248 0.189,0.308 0.401,0.778 0.449,1.176 l 5.603,0 C 0.798,2.068 0.449,0.846 0,0"
         style="fill:#000000;fill-opacity:1;fill-rule:nonzero;stroke:none"
         id="path7497" /></g><g
       id="g7499"
       transform="matrix(5.1163863,0,0,5.1163863,715.84869,1017.2126)"
       style="fill:#000000"><path
         inkscape:connector-curvature="0"
         d="m 0,0 c -1.461,0 -1.602,-2.02 -1.602,-3.086 0,-1.057 0.165,-3.059 1.602,-3.059 1.436,0 1.603,2.026 1.603,3.059 C 1.603,-2.02 1.436,0 0,0 m -0.07,-9.559 c -4.193,0 -6.947,2.519 -6.947,6.64 0,4.167 2.918,6.546 6.947,6.546 4.051,0 7.066,-2.446 7.066,-6.64 0,-4.215 -3.039,-6.546 -7.066,-6.546"
         style="fill:#000000;fill-opacity:1;fill-rule:nonzero;stroke:none"
         id="path7501" /></g><g
       id="g7503"
       transform="matrix(5.1163863,0,0,5.1163863,914.19564,971.07817)"
       style="fill:#000000"><path
         inkscape:connector-curvature="0"
         d="m 0,0 0,6.662 c 0,1.157 -0.381,1.626 -1.203,1.626 -0.825,0 -1.365,-0.753 -1.365,-1.718 l 0,-6.57 -5.254,0 0,6.64 c 0,1.158 -0.377,1.602 -1.202,1.602 -0.847,0 -1.388,-0.729 -1.388,-1.699 l 0,-6.543 -5.156,0 0,6.64 c 0,1.158 -0.378,1.602 -1.202,1.602 -0.847,0 -1.391,-0.729 -1.391,-1.699 l 0,-6.543 -5.157,0 0,6.64 c 0,1.158 -0.377,1.602 -1.202,1.602 -0.847,0 -1.388,-0.729 -1.388,-1.699 l 0,-6.543 -5.157,0 0,11.94 4.684,0 0.118,-1.061 c 0.779,0.964 2.098,1.67 3.746,1.67 1.647,0 3.32,-0.798 3.886,-1.834 0.636,0.987 2.238,1.815 3.933,1.815 1.956,0 3.252,-0.989 3.861,-1.888 0.566,0.899 2.123,1.888 3.77,1.888 2.074,0 3.177,-0.849 3.955,-1.888 1.204,1.602 2.779,1.888 3.747,1.888 3.671,0 4.545,-2.381 4.545,-5.043 L 5.18,0"
         style="fill:#000000;fill-opacity:1;fill-rule:nonzero;stroke:none"
         id="path7505" /></g><g
       id="g7507"
       transform="matrix(5.1163863,0,0,5.1163863,1000.2174,1015.0944)"
       style="fill:#000000"><path
         inkscape:connector-curvature="0"
         d="m 0,0 c -0.488,0.211 -2.636,0.729 -3.286,0.885 -2.295,0.505 -4.051,1.049 -4.051,3.077 0,2.433 2.104,3.301 4.067,3.301 2.706,0 4.445,-1.377 4.651,-3.689 l 0.01,-0.118 1.471,0 -0.011,0.14 C 2.658,6.727 0.369,8.593 -3.27,8.593 c -3.262,0 -5.539,-1.904 -5.539,-4.631 0,-2.575 1.759,-3.462 3.084,-3.911 0.52,-0.212 2.625,-0.73 3.15,-0.841 2.418,-0.531 4.418,-1.156 4.418,-3.374 0,-2.759 -2.812,-3.487 -4.301,-3.487 -1.99,0 -5.338,0.554 -5.369,4.276 l 0,0.131 -1.472,0 0.003,-0.131 c 0.061,-3.566 2.504,-5.608 6.703,-5.608 4.058,0 5.912,2.497 5.912,4.819 C 3.319,-1.461 1.423,-0.493 0,0"
         style="fill:#000000;fill-opacity:1;fill-rule:nonzero;stroke:none"
         id="path7509" /></g><g
       id="g7511"
       transform="matrix(5.1163863,0,0,5.1163863,1049.5138,1027.6807)"
       style="fill:#000000"><path
         inkscape:connector-curvature="0"
         d="m 0,0 c 2.349,0 3.638,-2.098 3.73,-4.215 l -7.522,0 C -3.552,-2.157 -2.288,0 0,0 M 3.506,-0.164 C 2.613,0.764 1.435,1.236 0,1.236 c -3.587,0 -5.192,-3.237 -5.192,-6.443 0,-3.763 2.04,-6.193 5.192,-6.193 2.668,0 4.4,1.411 5.003,4.073 l 0.037,0.164 -1.38,0 -0.027,-0.102 C 3.141,-9.116 1.852,-10.135 0,-10.135 c -0.985,0 -1.819,0.332 -2.477,0.998 -0.838,0.847 -1.315,2.182 -1.328,3.679 l 8.921,0 0.008,0.128 c 0.005,0.147 0.009,0.289 0.009,0.432 0,1.964 -0.572,3.633 -1.627,4.734"
         style="fill:#000000;fill-opacity:1;fill-rule:nonzero;stroke:none"
         id="path7513" /></g><g
       id="g7515"
       transform="matrix(5.1163863,0,0,5.1163863,1128.1578,992.45443)"
       style="fill:#000000"><path
         inkscape:connector-curvature="0"
         d="M 0,0 -0.018,-0.114 C -0.335,-1.99 -1.731,-3.25 -3.486,-3.25 c -2.95,0 -3.999,2.64 -3.999,5.113 0,2.414 1.25,5.02 3.999,5.02 1.839,0 3.067,-0.967 3.372,-2.651 l 0.021,-0.112 1.383,0 -0.026,0.152 c -0.358,2.414 -2.129,3.848 -4.75,3.848 -3.732,0 -5.4,-3.139 -5.4,-6.257 0,-2.939 1.412,-6.378 5.4,-6.378 2.546,0 4.401,1.672 4.844,4.355 L 1.381,0"
         style="fill:#000000;fill-opacity:1;fill-rule:nonzero;stroke:none"
         id="path7517" /></g></g></svg>