<svg width="90" height="40" viewBox="0 0 90 40" fill="none" xmlns="http://www.w3.org/2000/svg">
<g id="Layer 1">
<path id="Vector" d="M60.3643 17.9388C61.0845 17.4766 62.0638 17.2455 63.1125 17.2455C65.8417 17.2455 66.9978 18.6946 67.2442 18.9007L70.8641 15.8838L68.5329 13.1543C67.8127 12.3048 67.3516 11.2992 67.3516 10.1312C67.3516 7.63273 69.4111 5.60899 71.9507 5.60899C74.4904 5.60899 76.9479 7.22673 76.9479 10.1312V31.0181C76.9479 37.9263 80.4921 40.3748 90 39.3129V34.1537C85.0092 34.366 82.7538 34.4222 82.7538 31.0181V18.2573H89.4188V12.7295H82.678V10.1312C82.678 3.84759 77.6113 0 71.9507 0C66.2902 0 61.6847 4.54716 61.6847 10.1312C61.6847 10.8057 61.7542 11.4616 61.8806 12.0987C57.0287 12.5671 53.3266 15.6277 53.2697 20.0062C53.2697 29.8126 67.7306 27.0269 67.7306 31.7614C67.7306 33.7227 66.227 34.7533 63.2262 34.7533C60.2254 34.7533 58.2101 33.5915 56.8644 31.5303L52.7959 34.9219C54.7291 38.0825 58.3427 40.0062 63.163 40.0062C68.9689 40.0062 73.6502 37.133 73.6502 31.8176C73.6502 21.9863 59.1893 24.9094 59.1893 20.0687C59.1893 19.1131 59.6441 18.4072 60.3643 17.945" fill="#1F9F00"/>
<path id="Vector_2" d="M52.2715 26.2024C52.2715 18.6196 46.9774 12.2986 39.2384 12.2986C31.0888 12.2986 25.5293 18.3573 25.5293 26.1461C25.5293 33.935 31.0824 39.9937 39.649 39.9937C44.3809 39.9937 48.0767 38.1262 50.4963 34.9844L46.5289 31.5927C45.0379 33.5977 42.6941 34.772 39.7312 34.772C35.5805 34.772 32.2765 32.6671 31.392 28.5634H52.0567C52.1578 27.8263 52.2652 26.9831 52.2652 26.1961M31.3415 23.9413C32.1185 19.9937 34.9741 17.4641 39.1816 17.4641C42.5551 17.4641 45.8276 19.4129 46.6047 23.9413H31.3415Z" fill="#1F9F00"/>
<path id="Vector_3" d="M17.1016 26.2648C22.4147 24.8782 26.1294 20.2374 26.1294 14.5659C26.1294 7.71394 20.7974 2.44223 13.7597 2.44223H0V39.3504H6.13435V8.13242H13.7597C17.3859 8.13242 20.0014 10.8182 20.0014 14.5659C20.0014 18.3136 17.3859 20.9994 13.7597 20.9994H9.60901V25.9026L21.0375 39.3504H28.0626L17.108 26.2711L17.1016 26.2648Z" fill="#1F9F00"/>
</g>
</svg>